<?xml version="1.0" standalone="no"?><!DOCTYPE svg PUBLIC "-//W3C//DTD SVG 1.1//EN" "http://www.w3.org/Graphics/SVG/1.1/DTD/svg11.dtd"><svg t="1512463041148" class="icon" style="" viewBox="0 0 1024 1024" version="1.1" xmlns="http://www.w3.org/2000/svg" p-id="1870" xmlns:xlink="http://www.w3.org/1999/xlink" width="32" height="32"><defs><style type="text/css"></style></defs><path d="M513.943913 597.132929v223.944404c0 3.944727 1.503677 7.888162 4.512323 10.894223a15.36 15.36 0 0 0 10.894222 4.512323h113.263192c3.944727 0 7.888162-1.503677 10.895515-4.512323a15.366465 15.366465 0 0 0 4.511031-10.894223V522.639515l-115.161213 99.136647-28.91507-24.643233zM29.938418 821.077333a15.347071 15.347071 0 0 0 4.513616 10.894223 15.358707 15.358707 0 0 0 10.892929 4.512323H158.593933c3.943434 0 7.886869-1.503677 10.894222-4.512323a15.365172 15.365172 0 0 0 4.513616-10.894223V592.623192L29.938418 711.460202v109.617131z m241.97301-309.254464V821.074747c0 3.944727 1.503677 7.888162 4.512323 10.895516a15.358707 15.358707 0 0 0 10.892929 4.512323h113.28c3.943434 0 7.886869-1.50497 10.89293-4.512323a15.361293 15.361293 0 0 0 4.512323-10.895516V513.754505l-72.001939-61.308121-72.088566 59.376485z m484.035232 309.254464c0 3.944727 1.503677 7.888162 4.512323 10.894223a15.353535 15.353535 0 0 0 10.89293 4.512323h113.312323c3.944727 0 7.886869-1.503677 10.894222-4.512323a15.369051 15.369051 0 0 0 4.51103-10.894223v-506.841212l-144.122828 124.094061v382.747151zM731.093973 51.793455a5.136808 5.136808 0 0 0-3.602101 8.798383l108.284122 106.468849-292.919596 252.215596-198.855112-169.381495-314.88905 259.762424v112.206869l314.890343-259.746909 198.855112 169.350464 353.82303-304.589575 89.466828 87.98901a5.132929 5.132929 0 0 0 8.73503-3.660283V56.92897a5.126465 5.126465 0 0 0-1.504969-3.633132 5.113535 5.113535 0 0 0-3.629253-1.503676H731.093973v0.001293z" p-id="1871" fill="#555555"></path></svg>