<svg xmlns="http://www.w3.org/2000/svg" xmlns:xlink="http://www.w3.org/1999/xlink" width="200px" height="200px" viewBox="0 0 999 849" version="1.1" databind="databindHide"><defs/>
  <svg width="999" heitht="849" fill="none">
    <polygon fill="#7f7fff" stroke="#000000" stroke-width="3" points="0,335 0,805 669,805 669,335 0,335" />
    <polygon fill="#7f7fff" stroke="#000000" stroke-width="3" points="0,269 669,133 669,335 0,335 0,269" />
    <polygon fill="#4c4ccc" stroke="#000000" stroke-width="3" points="669,805 715,781 715,111 669,133 669,805" />
    <polygon fill="#7f7fff" points="999,813 999,35 998,32 997,29 995,26 992,22 988,19 983,17 978,14 972,12 966,9 959,7 952,6 944,4 936,3 927,2 918,2 909,1 900,2 891,2 883,3 875,4 867,6 860,7 853,9 847,12 841,14 836,17 831,19 828,22 825,26 822,29 821,32 821,35 821,813 821,816 822,820 825,823 828,827 831,830 836,833 841,836 847,838 853,840 860,843 867,844 875,846 883,847 891,848 900,848 909,849 918,848 927,848 936,847 944,846 952,844 959,843 966,840 972,838 978,836 983,833 988,830 992,827 995,823 997,820 998,816 999,813" />
    <polygon fill="#a6a6ff" points="965,813 965,788 965,764 965,740 965,715 965,691 965,667 965,643 965,618 965,594 965,570 965,545 965,521 965,497 965,473 965,448 965,424 965,400 965,375 965,351 965,327 965,303 965,279 965,254 965,230 965,206 965,181 965,157 965,133 965,108 965,84 965,60 965,35 964,32 964,28 962,25 960,21 958,18 955,15 952,12 949,10 945,8 940,5 936,4 931,2 926,1 920,0 915,0 909,0 903,0 898,0 892,1 887,2 882,4 878,5 873,8 869,10 866,12 862,15 860,18 857,21 855,25 854,28 853,32 853,35 853,60 853,84 853,108 853,133 853,157 854,181 854,206 854,230 854,254 854,279 854,303 854,327 854,351 854,375 854,400 854,424 854,448 854,473 854,497 854,521 854,545 854,570 854,594 854,618 854,643 854,667 853,691 853,715 853,740 853,764 853,788 853,813 853,816 854,820 855,823 857,827 860,830 862,833 866,836 869,838 873,840 878,843 882,844 887,846 892,847 898,848 903,848 909,849 915,848 920,848 926,847 931,846 936,844 940,843 945,840 949,838 952,836 955,833 958,830 960,827 962,823 964,820 964,816 965,813" />
    <polygon fill="#ccccff" points="933,813 933,35 932,29 931,22 928,17 925,12 922,7 917,4 913,2 909,1 904,2 900,4 896,7 893,12 890,17 888,22 887,29 887,35 887,813 887,820 888,827 890,833 893,838 896,843 900,846 904,848 909,849 913,848 917,846 922,843 925,838 928,833 931,827 932,820 933,813" />
    <polyline stroke="#000000" stroke-width="3" points="999,813 999,35 998,32 997,29 995,26 992,22 988,19 983,17 978,14 972,12 966,9 959,7 952,6 944,4 936,3 927,2 918,2 909,1 900,2 891,2 883,3 875,4 867,6 860,7 853,9 847,12 841,14 836,17 831,19 828,22 825,26 822,29 821,32 821,35 821,813 821,816 822,820 825,823 828,827 831,830 836,833 841,836 847,838 853,840 860,843 867,844 875,846 883,847 891,848 900,848 909,849 918,848 927,848 936,847 944,846 952,844 959,843 966,840 972,838 978,836 983,833 988,830 992,827 995,823 997,820 998,816 999,813" />
    <polyline stroke="#000000" stroke-width="3" points="41,259 41,264 41,268 41,273 41,278 41,282 41,287 41,292 41,297 41,301 41,306 41,311 41,316 41,321 41,326 41,330 41,335" />
    <polyline stroke="#000000" stroke-width="3" points="83,251 83,257 83,262 83,267 83,272 83,278 83,283 83,288 83,293 83,299 83,304 83,309 83,314 83,320 83,325 83,330 83,335" />
    <polyline stroke="#000000" stroke-width="3" points="125,243 125,249 125,255 125,260 125,266 125,272 125,277 125,283 125,289 125,294 125,300 125,306 125,312 125,318 125,323 125,329 125,335" />
    <polyline stroke="#000000" stroke-width="3" points="167,235 167,241 167,247 167,254 167,260 167,266 167,272 167,278 167,285 167,291 167,297 167,304 167,310 167,316 167,323 167,329 167,335" />
    <polyline stroke="#000000" stroke-width="3" points="209,225 209,232 209,239 209,246 209,253 209,260 209,266 209,273 209,280 209,287 209,294 209,301 209,308 209,315 209,322 209,329 209,335" />
    <polyline stroke="#000000" stroke-width="3" points="251,217 251,224 251,232 251,239 251,246 251,253 251,261 251,268 251,276 251,283 251,290 251,298 251,305 251,313 251,320 251,328 251,335" />
    <polyline stroke="#000000" stroke-width="3" points="293,209 293,217 293,225 293,233 293,241 293,249 293,257 293,264 293,272 293,280 293,288 293,296 293,304 293,312 293,320 293,327 293,335" />
    <polyline stroke="#000000" stroke-width="3" points="335,201 335,210 335,218 335,226 335,234 335,243 335,251 335,259 335,268 335,276 335,284 335,293 335,301 335,310 335,318 335,327 335,335" />
    <polyline stroke="#000000" stroke-width="3" points="377,193 377,202 377,211 377,219 377,228 377,237 377,246 377,255 377,264 377,273 377,281 377,290 377,299 377,308 377,317 377,326 377,335" />
    <polyline stroke="#000000" stroke-width="3" points="419,185 419,194 419,204 419,213 419,222 419,231 419,241 419,250 419,260 419,269 419,279 419,288 419,298 419,307 419,317 419,326 419,335" />
    <polyline stroke="#000000" stroke-width="3" points="461,175 461,185 461,195 461,205 461,215 461,225 461,235 461,245 461,255 461,265 461,275 461,285 461,295 461,305 461,315 461,325 461,335" />
    <polyline stroke="#000000" stroke-width="3" points="503,167 503,178 503,188 503,199 503,209 503,220 503,230 503,241 503,251 503,262 503,272 503,283 503,293 503,304 503,314 503,325 503,335" />
    <polyline stroke="#000000" stroke-width="3" points="543,159 543,170 544,181 544,192 544,203 544,214 544,225 544,236 545,247 544,258 544,269 544,280 544,291 544,302 544,313 543,324 543,335" />
    <polyline stroke="#000000" stroke-width="3" points="587,151 587,163 587,174 587,185 587,197 587,208 587,220 587,231 587,243 587,254 587,266 587,277 587,289 587,300 587,312 587,324 587,335" />
    <polyline stroke="#000000" stroke-width="3" points="627,141 627,153 628,165 628,178 628,190 628,202 628,214 628,226 629,238 628,251 628,263 628,275 628,287 628,299 628,311 627,323 627,335" />
    <polygon fill="#6565e5" stroke="#000000" stroke-width="3" points="687,469 821,469 821,765 687,765 687,469" />
    <polygon fill="#999999" stroke="#000000" stroke-width="3" points="669,133 715,111 43,245 0,269 669,133" />
    <polygon fill="#f0e808" points="187,392 187,727 382,727 382,392 187,392" />
    <polygon fill="#e3d40f" points="281,392 281,727 379,727 379,392 281,392" />
    <polygon fill="#d4bd17" points="353,392 353,727 588,727 588,392 353,392" />
    <polygon fill="#00b200" stroke="#000000" stroke-width="3" points="325,727 325,693 503,693 503,727 325,727" />
    <polygon fill="#ffff7f" points="79,391 191,391 191,727 79,727 79,391" />
    <polygon fill="#b2b2b2" stroke="#000000" stroke-width="3" points="163,593 117,593 115,593 113,592 111,590 109,588 107,585 105,582 103,578 102,573 100,569 99,564 98,558 97,552 96,546 96,540 95,534 95,527 95,520 96,513 96,507 97,500 98,494 99,489 100,484 102,479 103,474 105,470 107,467 109,464 111,462 113,460 115,459 117,459 163,459 166,459 168,460 170,462 172,464 174,467 176,470 177,474 179,479 180,484 182,489 183,494 184,500 184,507 185,513 185,520 185,527 185,534 185,540 184,546 184,552 183,558 182,564 180,569 179,573 177,578 176,582 174,585 172,588 170,590 168,592 166,593 163,593" />
    <ellipse fill="#f2f2f2" stroke="#000000" stroke-width="3" cx="162" cy="526" rx="23" ry="67" />
    <ellipse fill="#000000" stroke="#000000" stroke-width="3" cx="162" cy="526" rx="17" ry="51" />
    <polygon fill="#cc0000" points="151,521 153,516 153,510 153,504 153,498 153,493 155,488 158,484 163,481 166,480 171,480 177,479 183,478 191,477 199,477 208,476 217,475 225,475 234,474 242,473 250,473 257,472 263,472 268,471 271,471 277,470 285,469 294,468 304,467 315,466 325,465 335,464 345,463 353,463 360,463 365,464 367,465 367,466 364,468 356,471 345,475 343,475 340,476 337,478 334,479 331,481 328,483 326,485 325,487 324,487 322,488 318,489 314,490 309,491 303,492 297,493 291,494 284,496 278,497 273,499 268,500 263,501 260,503 258,504 257,505 353,505 352,507 350,509 347,511 343,513 337,515 332,516 326,518 319,520 312,521 306,523 299,524 293,525 288,526 283,526 280,527 277,527 245,527 248,530 252,533 257,536 263,538 270,539 277,540 285,541 292,541 300,542 308,542 316,542 323,542 330,541 335,541 341,541 345,541 356,541 363,540 368,540 373,540 376,540 381,542 388,545 397,549 379,551 365,552 354,554 345,555 338,556 333,557 330,558 328,559 326,559 325,560 323,560 321,561 318,561 314,561 308,561 299,561 275,561 277,562 279,564 281,565 283,566 285,567 287,567 289,568 291,569 294,574 296,577 299,579 303,581 306,582 311,584 316,585 321,587 320,588 317,589 314,590 309,590 305,591 300,591 294,592 288,592 282,592 276,592 270,592 265,592 260,592 255,592 251,591 247,591 243,589 239,588 234,586 230,583 226,581 222,578 218,575 213,571 212,570 207,570 200,570 192,571 185,571 178,571 173,571 171,569 171,569 169,569 167,569 165,569 163,569 160,569 159,569 157,569 157,567 157,565 156,563 155,561 154,559 153,557 152,556 151,555 151,521" />
    <polygon fill="#ed9900" points="153,523 159,516 161,510 161,504 160,499 158,494 158,490 159,487 163,485 165,485 168,484 170,484 174,483 177,483 181,483 185,482 190,482 194,482 198,481 202,481 206,480 209,480 212,480 215,479 217,479 220,479 224,478 228,478 232,477 236,477 241,477 245,476 249,476 253,476 256,476 259,476 261,476 262,477 261,477 260,478 257,479 261,479 266,479 273,479 279,479 286,479 292,479 297,479 301,479 293,481 286,483 279,485 273,487 267,488 263,490 258,492 255,493 252,495 249,496 247,497 245,498 244,499 243,500 242,501 241,501 242,502 240,502 238,502 237,502 237,502 240,503 247,505 259,507 262,509 267,512 274,514 281,516 289,518 295,520 300,521 301,521 300,521 297,521 294,521 290,521 286,521 282,521 277,521 271,521 266,521 261,521 256,522 251,522 246,522 242,522 238,523 235,523 234,526 234,528 235,529 237,530 240,531 242,531 244,531 245,531 251,534 258,535 267,536 275,536 282,536 288,536 290,537 289,539 280,542 276,544 274,546 274,547 275,548 276,549 276,550 273,551 275,551 276,551 278,551 279,551 281,551 282,551 284,551 285,551 284,552 282,552 281,553 279,554 277,555 275,555 273,556 271,557 268,560 266,562 264,564 263,565 262,566 260,567 256,568 253,568 249,569 245,569 242,569 239,569 239,570 239,571 240,573 241,575 242,577 243,578 244,579 243,579 239,576 234,574 228,573 223,572 217,571 212,570 208,570 205,569 202,568 199,568 196,567 193,567 189,567 186,567 184,567 181,567 178,566 174,565 170,565 167,563 164,562 161,561 158,559 155,557 154,554 155,550 157,546 159,541 160,537 160,532 158,528 153,523" />
    <polygon fill="#ffff00" points="155,525 162,517 165,511 165,505 163,500 161,496 160,492 160,489 163,487 213,481 253,479 242,482 233,484 226,486 222,488 219,490 218,491 217,493 218,494 220,495 222,496 225,497 227,498 229,498 231,499 231,499 229,500 226,500 223,501 219,501 214,501 210,501 206,502 202,502 199,502 196,503 195,504 195,505 196,506 199,507 204,509 211,511 214,512 219,512 227,513 236,514 244,514 252,515 258,515 261,515 259,515 257,516 253,517 249,518 245,519 240,520 235,521 229,522 224,523 219,524 214,525 210,525 206,526 202,527 199,527 197,527 198,530 199,532 202,533 206,534 210,535 215,535 220,535 225,535 230,534 234,534 238,534 240,533 241,533 241,534 239,534 235,535 238,537 241,539 244,541 247,542 250,544 254,544 257,545 261,545 264,545 268,546 272,546 275,545 279,545 282,545 286,545 289,545 286,546 283,547 280,547 276,548 273,549 269,550 265,551 262,551 258,552 254,553 251,553 247,554 244,554 241,555 238,555 235,555 235,561 237,562 239,564 243,567 246,571 250,575 253,579 256,581 257,583 247,578 238,574 229,571 221,569 213,568 206,567 199,567 193,566 187,567 182,567 177,566 172,566 168,565 164,564 160,562 157,559 156,556 157,552 160,548 162,543 164,539 165,534 162,530 155,525" />
    <polygon fill="#007f00" stroke="#000000" stroke-width="3" points="503,693 325,693 593,515 593,627 503,693" />
    <polygon fill="#004c00" stroke="#000000" stroke-width="3" points="503,693 593,627 593,677 531,727 503,727 503,693" />
    <polygon fill="#999999" stroke="#000000" stroke-width="3" points="565,391 593,391 593,579 565,579 565,391" />
    <polygon fill="#999999" stroke="#000000" stroke-width="3" points="537,391 565,391 565,599 537,599 537,391" />
    <polygon fill="#999999" stroke="#000000" stroke-width="3" points="509,391 537,391 537,619 509,619 509,391" />
    <polygon fill="#999999" stroke="#000000" stroke-width="3" points="475,391 509,391 509,639 475,639 475,391" />
    <polygon fill="#999999" stroke="#000000" stroke-width="3" points="443,391 475,391 475,661 443,661 443,391" />
    <polygon fill="#999999" stroke="#000000" stroke-width="3" points="409,391 441,391 441,683 409,683 409,391" />
    <polygon fill="#e5e5e5" points="573,391 583,391 583,579 573,579 573,391" />
    <polygon fill="#e5e5e5" points="547,391 555,391 555,599 547,599 547,391" />
    <polygon fill="#e5e5e5" points="519,391 527,391 527,619 519,619 519,391" />
    <polygon fill="#e5e5e5" points="487,391 497,391 497,639 487,639 487,391" />
    <polygon fill="#e5e5e5" points="453,391 465,391 465,661 453,661 453,391" />
    <polygon fill="#e5e5e5" points="419,391 431,391 431,683 419,683 419,391" />
    <polyline stroke="#000000" stroke-width="3" points="79,391 593,391 593,727 79,727 79,391" />
    <polygon fill="#000000" points="79,727 79,391 591,391 591,399 87,399 87,727 79,727" />
    <polygon fill="#cccccc" points="591,391 591,727 79,727 87,721 583,721 583,399 591,391" />
    <polyline stroke="#000000" stroke-width="3" points="686,620 822,620" />
    <polyline stroke="#000000" stroke-width="3" points="753,469 753,765" />
    <polyline stroke="#000000" stroke-width="3" points="821,177 821,174 822,170 825,167 828,163 831,160 836,157 841,154 847,152 853,150 860,147 867,146 875,144 883,143 891,142 900,142 909,141 916,141 923,142 931,143 938,143 944,145 951,146 957,147 963,149 968,151 974,153 978,155 983,157 986,160 990,162 992,165 995,167" />
    <polyline stroke="#000000" stroke-width="3" points="821,339 821,337 822,335 825,333 828,331 831,329 836,328 841,326 847,325 853,324 860,322 867,322 875,321 883,320 891,320 900,319 909,319 916,319 923,320 931,320 938,320 944,321 951,322 957,323 963,324 968,325 974,326 978,327 983,329 986,330 990,332 992,333 995,335" />
    <polyline stroke="#000000" stroke-width="3" points="999,517 998,518 997,520 995,521 992,523 988,524 983,525 978,526 972,527 966,528 959,529 952,529 944,530 936,530 927,531 918,531 909,531 901,531 894,531 887,531 880,530 873,530 867,529 860,529 854,528 849,528 844,527 839,526 835,525 831,524 828,523 825,522 823,521" />
    <polyline stroke="#000000" stroke-width="3" points="999,673 998,676 997,679 995,682 992,686 988,689 983,691 978,694 972,696 966,699 959,701 952,702 944,704 936,705 927,706 918,706 909,707 901,707 894,706 887,706 880,705 873,704 867,703 860,701 854,700 849,698 844,696 839,694 835,691 831,689 828,686 825,684 823,681" />
  </svg>
</svg>