<svg xmlns="http://www.w3.org/2000/svg" xmlns:xlink="http://www.w3.org/1999/xlink" width="200px" height="200px" viewBox="0 0 130 72" version="1.1" databind="databindHide"><defs/>
  <svg width="130" heitht="72" fill="none">
  <path d="M98,58L32,58 32,61 98,61 98,58z" fill="#263A59" stroke-linecap="round" stroke-linejoin="round" />
  <path d="M124,12L22,12 22,58 124,58 124,12z" fill="#666666" stroke-linecap="round" stroke-linejoin="round" />
  <path d="M126,61L4,61 4,68 126,68 126,61z" fill="#7387A6" stroke="#000000" stroke-linecap="round" stroke-linejoin="round" />
  <path d="M126,9L124,9 124,61 126,61 126,9z" fill="#405473" stroke-linecap="round" stroke-linejoin="round" />
  <path d="M126,62L4,62 4,67 126,67 126,62z" fill="#596D8C" stroke="#000000" stroke-linecap="round" stroke-linejoin="round" />
  <path d="M126,62L4,62 4,63 126,63 126,62z" fill="#263A59" stroke-linecap="round" stroke-linejoin="round" />
  <path d="M124,14L22,14 22,56 124,56 124,14z" fill="#737373" stroke-linecap="round" stroke-linejoin="round" />
  <path d="M124,16L22,16 22,54 124,54 124,16z" fill="#7D7D7D" stroke-linecap="round" stroke-linejoin="round" />
  <path d="M124,18L22,18 22,52 124,52 124,18z" fill="#8A8A8A" stroke-linecap="round" stroke-linejoin="round" />
  <path d="M124,19L22,19 22,51 124,51 124,19z" fill="#949494" stroke-linecap="round" stroke-linejoin="round" />
  <path d="M124,21L22,21 22,49 124,49 124,21z" fill="#A1A1A1" stroke-linecap="round" stroke-linejoin="round" />
  <path d="M124,23L22,23 22,47 124,47 124,23z" fill="#ABABAB" stroke-linecap="round" stroke-linejoin="round" />
  <path d="M124,25L22,25 22,45 124,45 124,25z" fill="#B8B8B8" stroke-linecap="round" stroke-linejoin="round" />
  <path d="M124,27L22,27 22,43 124,43 124,27z" fill="#C2C2C2" stroke-linecap="round" stroke-linejoin="round" />
  <path d="M124,29L22,29 22,41 124,41 124,29z" fill="#CFCFCF" stroke-linecap="round" stroke-linejoin="round" />
  <path d="M124,31L22,31 22,39 124,39 124,31z" fill="#D9D9D9" stroke-linecap="round" stroke-linejoin="round" />
  <path d="M124,32L22,32 22,38 124,38 124,32z" fill="#E5E5E5" stroke-linecap="round" stroke-linejoin="round" />
  <path d="M126,11L124,11 124,59 126,59 126,11z" fill="#4C607F" stroke-linecap="round" stroke-linejoin="round" />
  <path d="M126,14L124,14 124,56 126,56 126,14z" fill="#576B8A" stroke-linecap="round" stroke-linejoin="round" />
  <path d="M126,16L124,16 124,54 126,54 126,16z" fill="#637796" stroke-linecap="round" stroke-linejoin="round" />
  <path d="M126,18L124,18 124,52 126,52 126,18z" fill="#6E82A1" stroke-linecap="round" stroke-linejoin="round" />
  <path d="M126,20L124,20 124,50 126,50 126,20z" fill="#7A8EAD" stroke-linecap="round" stroke-linejoin="round" />
  <path d="M126,22L124,22 124,48 126,48 126,22z" fill="#8599B8" stroke-linecap="round" stroke-linejoin="round" />
  <path d="M126,24L124,24 124,46 126,46 126,24z" fill="#91A5C4" stroke-linecap="round" stroke-linejoin="round" />
  <path d="M126,26L124,26 124,44 126,44 126,26z" fill="#9CB0CF" stroke-linecap="round" stroke-linejoin="round" />
  <path d="M126,28L124,28 124,42 126,42 126,28z" fill="#A8BCDB" stroke-linecap="round" stroke-linejoin="round" />
  <path d="M126,30L124,30 124,40 126,40 126,30z" fill="#B2C6E5" stroke-linecap="round" stroke-linejoin="round" />
  <path d="M126,32L124,32 124,38 126,38 126,32z" fill="#BFD3F2" stroke-linecap="round" stroke-linejoin="round" />
  <path d="M126,9L124,9 124,61 126,61 126,9" stroke="#000000" stroke-linecap="round" stroke-linejoin="round" />
  <path d="M124,12L22,12 22,58 124,58 124,12" stroke="#000000" stroke-linecap="round" stroke-linejoin="round" />
  <path d="M56,24L50,24 50,25 56,25 56,24z" fill="#990000" stroke-linecap="round" stroke-linejoin="round" />
  <path d="M55,24L51,24 51,25 55,25 55,24z" fill="#CC4C4C" stroke-linecap="round" stroke-linejoin="round" />
  <path d="M53,24L52,24 52,25 53,25 53,24z" fill="#EBB8B8" stroke-linecap="round" stroke-linejoin="round" />
  <path d="M30,45L25,45 25,61 30,61 30,45z" fill="#7F7F7F" stroke="#000000" stroke-linecap="round" stroke-linejoin="round" />
  <path d="M29,45L27,45 27,61 29,61 29,45z" fill="#CCCCCC" stroke-linecap="round" stroke-linejoin="round" />
  <path d="M14,45L9,45 9,61 14,61 14,45z" fill="#596D8C" stroke="#000000" stroke-linecap="round" stroke-linejoin="round" />
  <path d="M34,53L14,53 14,55 34,55 34,53z" fill="#596D8C" stroke="#000000" stroke-linecap="round" stroke-linejoin="round" />
  <path d="M39,45L34,45 34,61 39,61 39,45z" fill="#596D8C" stroke="#000000" stroke-linecap="round" stroke-linejoin="round" />
  <path d="M88,55L42,55 42,61 88,61 88,55z" fill="#596D8C" stroke="#000000" stroke-linecap="round" stroke-linejoin="round" />
  <path d="M114,43L112,41 112,17 76,17 75,15 114,15 114,43z" fill="#4C4C4C" stroke-linecap="round" stroke-linejoin="round" />
  <path d="M75,15L76,17 76,41 112,41 113,43 75,43 75,15z" fill="#B2B2B2" stroke-linecap="round" stroke-linejoin="round" />
  <path d="M114,15L75,15 75,43 114,43 114,15" stroke="#000000" stroke-linecap="round" stroke-linejoin="round" />
  <path d="M112,17L98,17 98,41 112,41 112,17z" fill="#661919" stroke-linecap="round" stroke-linejoin="round" />
  <path d="M98,17L94,17 94,41 98,41 98,17z" fill="#701414" stroke-linecap="round" stroke-linejoin="round" />
  <path d="M94,17L91,17 91,41 94,41 94,17z" fill="#780A0A" stroke-linecap="round" stroke-linejoin="round" />
  <path d="M91,17L88,17 88,41 91,41 91,17z" fill="#820505" stroke-linecap="round" stroke-linejoin="round" />
  <path d="M89,17L86,17 86,41 89,41 89,17z" fill="#8C0000" stroke-linecap="round" stroke-linejoin="round" />
  <path d="M87,17L85,17 85,41 87,41 87,17z" fill="#940000" stroke-linecap="round" stroke-linejoin="round" />
  <path d="M86,17L83,17 83,41 86,41 86,17z" fill="#9E0000" stroke-linecap="round" stroke-linejoin="round" />
  <path d="M85,17L82,17 82,41 85,41 85,17z" fill="#A60000" stroke-linecap="round" stroke-linejoin="round" />
  <path d="M83,17L81,17 81,41 83,41 83,17z" fill="#B00000" stroke-linecap="round" stroke-linejoin="round" />
  <path d="M82,17L79,17 79,41 82,41 82,17z" fill="#BA0000" stroke-linecap="round" stroke-linejoin="round" />
  <path d="M80,17L78,17 78,41 80,41 80,17z" fill="#C20000" stroke-linecap="round" stroke-linejoin="round" />
  <path d="M79,17L76,17 76,41 79,41 79,17z" fill="#CC0000" stroke-linecap="round" stroke-linejoin="round" />
  <path d="M125,9L125,7" stroke="#000000" stroke-linecap="round" stroke-linejoin="round" />
  <path d="M106,22L108,22 108,17 106,17 106,22z" fill="#7F7F7F" stroke-linecap="round" stroke-linejoin="round" />
  <path d="M103,20L105,20 105,17 103,17 103,20z" fill="#7F7F7F" stroke-linecap="round" stroke-linejoin="round" />
  <path d="M99,20L102,20 102,17 99,17 99,20z" fill="#7F7F7F" stroke-linecap="round" stroke-linejoin="round" />
  <path d="M96,20L99,20 99,17 96,17 96,20z" fill="#7F7F7F" stroke-linecap="round" stroke-linejoin="round" />
  <path d="M93,20L96,20 96,17 93,17 93,20z" fill="#7F7F7F" stroke-linecap="round" stroke-linejoin="round" />
  <path d="M90,20L92,20 92,17 90,17 90,20z" fill="#7F7F7F" stroke-linecap="round" stroke-linejoin="round" />
  <path d="M87,20L89,20 89,17 87,17 87,20z" fill="#7F7F7F" stroke-linecap="round" stroke-linejoin="round" />
  <path d="M83,20L86,20 86,17 83,17 83,20z" fill="#7F7F7F" stroke-linecap="round" stroke-linejoin="round" />
  <path d="M80,22L83,22 83,17 80,17 80,22z" fill="#7F7F7F" stroke-linecap="round" stroke-linejoin="round" />
  <path d="M80,17L77,17 77,41 80,41 80,17z" fill="#7F7F7F" stroke-linecap="round" stroke-linejoin="round" />
  <path d="M83,37L80,37 80,41 83,41 83,37z" fill="#7F7F7F" stroke-linecap="round" stroke-linejoin="round" />
  <path d="M86,38L84,38 84,41 86,41 86,38z" fill="#7F7F7F" stroke-linecap="round" stroke-linejoin="round" />
  <path d="M89,39L87,39 87,41 89,41 89,39z" fill="#7F7F7F" stroke-linecap="round" stroke-linejoin="round" />
  <path d="M92,39L90,39 90,41 92,41 92,39z" fill="#7F7F7F" stroke-linecap="round" stroke-linejoin="round" />
  <path d="M96,39L93,39 93,41 96,41 96,39z" fill="#7F7F7F" stroke-linecap="round" stroke-linejoin="round" />
  <path d="M99,39L96,39 96,41 99,41 99,39z" fill="#7F7F7F" stroke-linecap="round" stroke-linejoin="round" />
  <path d="M102,39L100,39 100,41 102,41 102,39z" fill="#7F7F7F" stroke-linecap="round" stroke-linejoin="round" />
  <path d="M105,38L103,38 103,41 105,41 105,38z" fill="#7F7F7F" stroke-linecap="round" stroke-linejoin="round" />
  <path d="M108,37L106,37 106,41 108,41 108,37z" fill="#7F7F7F" stroke-linecap="round" stroke-linejoin="round" />
  <path d="M112,17L109,17 109,41 112,41 112,17z" fill="#7F7F7F" stroke-linecap="round" stroke-linejoin="round" />
  <path d="M79,17L78,17 78,41 79,41 79,17z" fill="#CCCCCC" stroke-linecap="round" stroke-linejoin="round" />
  <path d="M111,17L110,17 110,41 111,41 111,17z" fill="#CCCCCC" stroke-linecap="round" stroke-linejoin="round" />
  <path d="M108,37L107,37 107,41 108,41 108,37z" fill="#CCCCCC" stroke-linecap="round" stroke-linejoin="round" />
  <path d="M104,38L103,38 103,41 104,41 104,38z" fill="#CCCCCC" stroke-linecap="round" stroke-linejoin="round" />
  <path d="M101,39L100,39 100,41 101,41 101,39z" fill="#CCCCCC" stroke-linecap="round" stroke-linejoin="round" />
  <path d="M98,39L97,39 97,41 98,41 98,39z" fill="#CCCCCC" stroke-linecap="round" stroke-linejoin="round" />
  <path d="M95,39L94,39 94,41 95,41 95,39z" fill="#CCCCCC" stroke-linecap="round" stroke-linejoin="round" />
  <path d="M92,39L91,39 91,41 92,41 92,39z" fill="#CCCCCC" stroke-linecap="round" stroke-linejoin="round" />
  <path d="M89,39L88,39 88,41 89,41 89,39z" fill="#CCCCCC" stroke-linecap="round" stroke-linejoin="round" />
  <path d="M85,38L84,38 84,41 85,41 85,38z" fill="#CCCCCC" stroke-linecap="round" stroke-linejoin="round" />
  <path d="M82,37L81,37 81,41 82,41 82,37z" fill="#CCCCCC" stroke-linecap="round" stroke-linejoin="round" />
  <path d="M81,22L82,22 82,17 81,17 81,22z" fill="#CCCCCC" stroke-linecap="round" stroke-linejoin="round" />
  <path d="M84,20L85,20 85,17 84,17 84,20z" fill="#CCCCCC" stroke-linecap="round" stroke-linejoin="round" />
  <path d="M87,20L88,20 88,17 87,17 87,20z" fill="#CCCCCC" stroke-linecap="round" stroke-linejoin="round" />
  <path d="M91,20L92,20 92,17 91,17 91,20z" fill="#CCCCCC" stroke-linecap="round" stroke-linejoin="round" />
  <path d="M94,20L95,20 95,17 94,17 94,20z" fill="#CCCCCC" stroke-linecap="round" stroke-linejoin="round" />
  <path d="M97,20L98,20 98,17 97,17 97,20z" fill="#CCCCCC" stroke-linecap="round" stroke-linejoin="round" />
  <path d="M100,20L101,20 101,17 100,17 100,20z" fill="#CCCCCC" stroke-linecap="round" stroke-linejoin="round" />
  <path d="M103,20L104,20 104,17 103,17 103,20z" fill="#CCCCCC" stroke-linecap="round" stroke-linejoin="round" />
  <path d="M107,22L108,22 108,17 107,17 107,22z" fill="#CCCCCC" stroke-linecap="round" stroke-linejoin="round" />
  <path d="M83,37L82,37 82,36 81,37 80,37 81,37 82,38 82,37 83,37z" fill="#000000" stroke-linecap="round" stroke-linejoin="round" />
  <path d="M86,38L86,38 85,38 84,38 84,38 84,39 85,39 86,39 86,38z" fill="#000000" stroke-linecap="round" stroke-linejoin="round" />
  <path d="M89,39L89,38 88,38 87,38 87,39 87,39 88,40 89,39 89,39z" fill="#000000" stroke-linecap="round" stroke-linejoin="round" />
  <path d="M92,39L92,38 91,38 90,38 90,39 90,39 91,40 92,39 92,39z" fill="#000000" stroke-linecap="round" stroke-linejoin="round" />
  <path d="M96,39L95,38 94,38 93,38 93,39 93,39 94,40 95,39 96,39z" fill="#000000" stroke-linecap="round" stroke-linejoin="round" />
  <path d="M99,39L98,38 98,38 97,38 96,39 97,39 98,40 98,39 99,39z" fill="#000000" stroke-linecap="round" stroke-linejoin="round" />
  <path d="M102,39L102,38 101,38 100,38 100,39 100,39 101,40 102,39 102,39z" fill="#000000" stroke-linecap="round" stroke-linejoin="round" />
  <path d="M105,38L105,38 104,38 103,38 103,38 103,39 104,39 105,39 105,38z" fill="#000000" stroke-linecap="round" stroke-linejoin="round" />
  <path d="M108,37L108,36 107,36 106,36 106,37 106,37 107,38 108,37 108,37z" fill="#000000" stroke-linecap="round" stroke-linejoin="round" />
  <path d="M103,20L103,21 104,21 105,21 105,20 105,20 104,20 103,20 103,20z" fill="#000000" stroke-linecap="round" stroke-linejoin="round" />
  <path d="M99,20L100,20 101,20 102,20 102,20 102,19 101,19 100,19 99,20z" fill="#000000" stroke-linecap="round" stroke-linejoin="round" />
  <path d="M96,20L97,20 98,20 98,20 99,20 98,19 98,19 97,19 96,20z" fill="#000000" stroke-linecap="round" stroke-linejoin="round" />
  <path d="M93,20L93,20 94,20 95,20 96,20 95,19 94,19 93,19 93,20z" fill="#000000" stroke-linecap="round" stroke-linejoin="round" />
  <path d="M90,20L90,20 91,20 92,20 92,20 92,19 91,19 90,19 90,20z" fill="#000000" stroke-linecap="round" stroke-linejoin="round" />
  <path d="M87,20L87,20 88,20 89,20 89,20 89,19 88,19 87,19 87,20z" fill="#000000" stroke-linecap="round" stroke-linejoin="round" />
  <path d="M83,20L84,21 85,21 86,21 86,20 86,20 85,20 84,20 83,20z" fill="#000000" stroke-linecap="round" stroke-linejoin="round" />
  <path d="M80,22L81,22 82,22 82,22 83,22 82,21 82,21 81,21 80,22z" fill="#000000" stroke-linecap="round" stroke-linejoin="round" />
  <path d="M106,22L106,22 107,22 108,22 108,22 108,21 107,21 106,21 106,22z" fill="#000000" stroke-linecap="round" stroke-linejoin="round" />
  <path d="M112,17L76,17 76,41 112,41 112,17" stroke="#000000" stroke-linecap="round" stroke-linejoin="round" />
  <path d="M46,20L41,20 41,40 46,40 46,20z" fill="#7F7F7F" stroke-linecap="round" stroke-linejoin="round" />
  <path d="M54,25L52,25 52,31 54,31 54,25z" fill="#7F7F7F" stroke-linecap="round" stroke-linejoin="round" />
  <path d="M46,31L46,34 63,34 63,31 46,31z" fill="#7F7F7F" stroke-linecap="round" stroke-linejoin="round" />
  <path d="M66,35L62,35 62,39 66,39 66,35z" fill="#7F7F7F" stroke-linecap="round" stroke-linejoin="round" />
  <path d="M66,27L63,27 63,35 66,35 66,27z" fill="#7F7F7F" stroke-linecap="round" stroke-linejoin="round" />
  <path d="M65,20L64,20 64,27 65,27 65,20z" fill="#7F7F7F" stroke-linecap="round" stroke-linejoin="round" />
  <path d="M44,20L43,20 43,40 44,40 44,20z" fill="#CCCCCC" stroke-linecap="round" stroke-linejoin="round" />
  <path d="M53,25L52,25 52,31 53,31 53,25z" fill="#CCCCCC" stroke-linecap="round" stroke-linejoin="round" />
  <path d="M46,32L46,33 63,33 63,32 46,32z" fill="#CCCCCC" stroke-linecap="round" stroke-linejoin="round" />
  <path d="M65,20L64,20 64,27 65,27 65,20z" fill="#CCCCCC" stroke-linecap="round" stroke-linejoin="round" />
  <path d="M65,27L64,27 64,35 65,35 65,27z" fill="#CCCCCC" stroke-linecap="round" stroke-linejoin="round" />
  <path d="M65,35L64,35 64,39 65,39 65,35z" fill="#CCCCCC" stroke-linecap="round" stroke-linejoin="round" />
  <path d="M39,45L9,45 9,7 39,7 39,45z" fill="#596D8C" stroke="#000000" stroke-linecap="round" stroke-linejoin="round" />
  <path d="M38,44L10,44 10,8 38,8 38,44z" fill="#7387A6" stroke-linecap="round" stroke-linejoin="round" />
  <path d="M38,44L38,8 10,8" stroke="#BFD3F2" stroke-linecap="round" stroke-linejoin="round" />
  <path d="M10,8L10,44 38,44" stroke="#263A59" stroke-linecap="round" stroke-linejoin="round" />
  <path d="M24,31L14,31 14,40 24,40 24,31z" fill="#E5E5E5" stroke-linecap="round" stroke-linejoin="round" />
  <path d="M23,35L15,35" stroke="#000000" stroke-linecap="round" stroke-linejoin="round" />
  <path d="M23,32L15,32" stroke="#000000" stroke-linecap="round" stroke-linejoin="round" />
  <path d="M33,17L31,17 31,19 33,19 33,17z" fill="#333333" stroke-linecap="round" stroke-linejoin="round" />
  <path d="M30,17L28,17 28,19 30,19 30,17z" fill="#333333" stroke-linecap="round" stroke-linejoin="round" />
  <path d="M27,17L25,17 25,19 27,19 27,17z" fill="#333333" stroke-linecap="round" stroke-linejoin="round" />
  <path d="M30,20L28,20 28,22 30,22 30,20z" fill="#333333" stroke-linecap="round" stroke-linejoin="round" />
  <path d="M27,20L25,20 25,22 27,22 27,20z" fill="#333333" stroke-linecap="round" stroke-linejoin="round" />
  <path d="M24,20L22,20 22,22 24,22 24,20z" fill="#333333" stroke-linecap="round" stroke-linejoin="round" />
  <path d="M24,17L22,17 22,19 24,19 24,17z" fill="#333333" stroke-linecap="round" stroke-linejoin="round" />
  <path d="M30,23L28,23 28,25 30,25 30,23z" fill="#333333" stroke-linecap="round" stroke-linejoin="round" />
  <path d="M25,23L24,23 24,25 25,25 25,23z" fill="#333333" stroke-linecap="round" stroke-linejoin="round" />
  <path d="M30,13L29,11 28,11 27,11 26,13 27,14 28,15 29,14 30,13z" fill="#333333" stroke-linecap="round" stroke-linejoin="round" />
  <path d="M39,4L9,4 9,7 39,7 39,4z" fill="#405473" stroke="#000000" stroke-linecap="round" stroke-linejoin="round" />
  <path d="M46,20L41,20 41,40 46,40 46,20" stroke="#000000" stroke-linecap="round" stroke-linejoin="round" />
  <path d="M54,25L52,25 52,31 54,31 54,25" stroke="#000000" stroke-linecap="round" stroke-linejoin="round" />
  <path d="M46,31L46,34 63,34 63,31 46,31" stroke="#000000" stroke-linecap="round" stroke-linejoin="round" />
  <path d="M65,20L64,20 64,27 65,27 65,20" stroke="#000000" stroke-linecap="round" stroke-linejoin="round" />
  <path d="M66,27L63,27 63,35 66,35 66,27" stroke="#000000" stroke-linecap="round" stroke-linejoin="round" />
  <path d="M66,35L62,35 62,39 66,39 66,35" stroke="#000000" stroke-linecap="round" stroke-linejoin="round" />
  <path d="M85,61L85,50 60,35 52,35 45,40 45,61 85,61" stroke="#000000" stroke-linecap="round" stroke-linejoin="round" />
  <path d="M85,61L85,50 60,35 52,35 45,40 45,61 85,61z" fill="#8CA0BF" stroke-linecap="round" stroke-linejoin="round" />
  <path d="M85,57L45,45 45,61 85,61 85,57z" fill="#8599B8" stroke-linecap="round" stroke-linejoin="round" />
  <path d="M85,59L45,48 45,61 85,61 85,59z" fill="#7A8EAD" stroke-linecap="round" stroke-linejoin="round" />
  <path d="M85,61L45,49 45,61 85,61 85,61z" fill="#7387A6" stroke-linecap="round" stroke-linejoin="round" />
  <path d="M84,61L84,51 60,36 52,36 46,41 46,61" stroke="#000000" stroke-linecap="round" stroke-linejoin="round" />
</svg>
  </svg>