<?xml version="1.0" standalone="no"?><!DOCTYPE svg PUBLIC "-//W3C//DTD SVG 1.1//EN" "http://www.w3.org/Graphics/SVG/1.1/DTD/svg11.dtd"><svg t="1521447204514" class="icon" style="" viewBox="0 0 1024 1024" version="1.1" xmlns="http://www.w3.org/2000/svg" p-id="1452" data-spm-anchor-id="a313x.7781069.0.i4" xmlns:xlink="http://www.w3.org/1999/xlink" width="48" height="48"><defs><style type="text/css"></style></defs><path d="M984.752 532.72 790.432 726.8C778.432 738.768 758.976 738.768 746.976 726.8 734.992 714.816 734.992 695.408 746.976 683.44L919.616 511.04 746.976 338.656C734.992 326.672 734.992 307.264 746.976 295.296 758.976 283.312 778.432 283.312 790.432 295.296L984.752 489.36C996.752 501.344 996.752 520.752 984.752 532.72ZM347.776 911.568C338.944 926.992 319.376 932.288 304.064 923.376 288.752 914.48 283.52 894.752 292.352 879.328L676.352 112.432C685.184 96.992 704.752 91.712 720.064 100.624 735.376 109.52 740.608 129.248 731.776 144.672L347.776 911.568ZM277.152 726.8C265.152 738.768 245.696 738.768 233.696 726.8L39.36 532.72C27.376 520.752 27.376 501.344 39.36 489.36L233.696 295.296C245.696 283.312 265.152 283.312 277.152 295.296 289.136 307.264 289.136 326.672 277.152 338.656L104.528 511.04 277.152 683.44C289.136 695.408 289.136 714.816 277.152 726.8Z" p-id="1453" data-spm-anchor-id="a313x.7781069.0.i1" fill="#5a5a5a" class=""></path></svg>