<?xml version="1.0" standalone="no"?><!DOCTYPE svg PUBLIC "-//W3C//DTD SVG 1.1//EN" "http://www.w3.org/Graphics/SVG/1.1/DTD/svg11.dtd"><svg t="1520921790366" class="icon" style="" viewBox="0 0 1024 1024" version="1.1" xmlns="http://www.w3.org/2000/svg" p-id="6408" data-spm-anchor-id="a313x.7781069.0.i9" xmlns:xlink="http://www.w3.org/1999/xlink" width="48" height="48"><defs><style type="text/css"></style></defs><path d="M960.855 719.009q0 22.404-7.617 42.119t-21.059 35.845-31.813 26.436-39.879 13.89v1.792h-601.311q-1.792 0-2.241 0.449t-2.24 0.449-2.689-0.449-2.689-0.449h-5.376v-0.896q-37.638-1.792-70.347-17.027t-56.904-40.774-38.086-59.145-13.89-71.243 13.89-70.795 37.638-58.249 55.56-41.223 68.555-18.82q6.274-58.249 32.261-108.881t66.763-88.271 93.647-59.145 112.913-21.508q63.627 0 120.082 24.196t98.127 66.314 65.866 98.127 24.196 119.635q0 28.676-5.376 56.009t-15.235 52.424q1.792 0 4.033-0.449t4.033-0.449q25.092 0 46.599 9.41t37.638 25.54 25.54 38.086 9.41 47.048zM666.025 586.38q10.754-17.923 6.274-20.611t-22.404-2.689q-10.754 0-30.020-0.449t-29.125-0.449q-14.339 0-18.371-11.65t-4.033-32.261q0-28.676-0.449-46.151t-0.449-38.086q0-23.3-3.136-34.053t-25.54-10.754q-16.13 0-24.196 0.449t-22.404 0.449q-24.196 0-30.020 13.89t-5.825 27.333v28.676q0 11.65 0.449 22.404t0.449 22.404v25.989q0 14.338-3.585 21.955t-17.027 7.617q-5.376 0.896-14.786 1.344t-19.267 0.896-18.819 0.449h-14.339q-18.819 0-22.404 11.65t11.65 29.573q15.235 18.82 32.709 40.774t34.501 44.359 32.709 43.463 29.125 36.294q24.196 26.884 46.599-0.896 13.443-15.235 31.365-39.43t36.743-50.632 35.845-51.080 27.781-40.774z" p-id="6409" fill="#5a5a5a" data-spm-anchor-id="a313x.7781069.0.i6" class=""></path></svg>