<svg xmlns="http://www.w3.org/2000/svg" xmlns:xlink="http://www.w3.org/1999/xlink" width="100px" height="100px" version="1.1"><defs/>
<svg width='100%' height='100%' viewBox="0 0 100 100" databind="databindHide">
  <path id="cooler_frameTop" d="M 60,0 L30,30 L50,30 L80,0" fill="#C0C0C0" />
  <path id="cooler_frameFront" d="M 30,30 L30,100 L50,100 L50,30" fill="#A0A0A0" />
  <path id="cooler_frameFace" d="M 80,0 L50,30 L50,100 L80,70" fill="#909090" />
  <path id="cooler_backFace" d="M 75,12 L70,17 L70,67 L75,67" fill="#A0A0A0" />
  <path id="cooler_bottom" d="M 75,67 L70,67 L55,82 L55,87" fill="#C0C0C0" />
  <path id="cooler_grid" d="M 70,17 L55,32 L55,82 L70,67" fill="#ADD8E6" databind="databind1" style="display:none;"/>
  <path id="_cooler_grid" d="M 70,17 L55,32 L55,82 L70,67" fill="#707070" databind="databind2" style="display:block;"/>

  <path id="cooler_grill0" d="M 32,80 48,40 L48,50 L32,90 Z" fill="#ADD8E6" databind="databind1" style="display:none;" />
  <path id="_cooler_grill0" d="M 32,80 48,40 L48,50 L32,90 Z" fill="#707070" databind="databind2" style="display:block;" />

  <path id="cooler_grill1" d="M 32,70 44,40 L39,40 L32,58 Z" fill="#ADD8E6" databind="databind1" style="display:none;" />
  <path id="_cooler_grill1" d="M 32,70 44,40 L39,40 L32,58 Z" fill="#707070" databind="databind2" style="display:block;" />

  <path id="cooler_grill2" d="M 36,90 L48,60 L48,72 L41,90 Z" fill="#ADD8E6" databind="databind1" style="display:none;"  />
  <path id="_cooler_grill2" d="M 36,90 L48,60 L48,72 L41,90 Z" fill="#707070" databind="databind2" style="display:block;"/>

  <svg id="cooler_snowFlake" x="52" y="40">
      <path databind="databind1" style="display:none;" transform="scale(0.6,0.6)" fill="#FFFFFF" d="M 20.205,19.59L 20.205,17.7075L 18.765,16.8L 17.3775,17.7075L 17.3775,19.59L 18.765,20.4975L 20.205,19.59 Z M 37.5825,24L 34.275,24L 32.115,20.64L 29.1375,20.64L 31.2975,24L 27.9825,24L 25.8225,20.64L 21.885,20.64L 23.805,23.8575L 27.7425,24L 29.4225,26.88L 25.44,26.925L 26.925,29.61L 30.9075,29.76L 32.5425,32.64L 28.56,32.355L 29.52,33.9825L 26.31,35.805L 25.395,34.2225L 23.4225,37.92L 21.7575,34.9275L 23.6775,31.3275L 22.275,28.8L 20.3025,32.64L 18.63,29.58L 20.55,25.845L 18.6075,22.515L 16.755,25.7775L 18.6225,29.3325L 16.9425,32.16L 15.0675,28.6575L 13.5825,31.245L 15.4575,34.755L 13.8225,37.5825L 11.955,34.08L 11.04,35.6625L 7.8225,33.84L 8.7825,32.205L 4.6575,32.355L 6.2925,29.52L 10.4175,29.3775L 11.9025,26.835L 7.7775,26.925L 9.4575,24.09L 13.5375,23.9475L 15.5025,20.5425L 11.805,20.5425L 9.69,23.9025L 6.285,23.9025L 8.4,20.5425L 5.565,20.5425L 3.45,23.9025L 0.0449994,23.9025L 2.16,20.5425L 0.3375,20.5425L 0.3375,16.845L 2.16,16.845L 0,13.3425L 3.2625,13.3425L 5.475,16.845L 8.4,16.845L 6.24,13.3425L 9.5475,13.3425L 11.7075,16.845L 15.645,16.845L 13.7775,13.5825L 9.795,13.44L 8.16,10.56L 12.0975,10.56L 10.6125,8.085L 6.675,7.8975L 5.04,5.1825L 8.9775,5.28L 8.0625,3.675L 11.28,1.875L 12.195,3.4575L 14.115,0L 15.855,2.7825L 13.8675,6.3675L 15.315,8.88L 17.28,5.28L 18.96,8.1975L 17.01,11.7825L 18.9225,15.12L 20.835,11.8575L 18.96,8.355L 20.64,5.475L 22.4625,9.0225L 23.955,6.435L 22.125,2.925L 23.76,0.0974998L 25.5825,3.6L 26.5425,1.965L 29.715,3.7575L 28.8,5.28L 32.925,5.28L 31.29,8.1375L 27.165,8.235L 25.68,10.845L 29.805,10.56L 28.125,13.305L 24,13.44L 22.08,16.8L 25.8225,16.8L 27.9375,13.44L 31.245,13.44L 29.1375,16.8L 32.115,16.8L 34.2225,13.44L 37.485,13.44L 35.3775,16.8L 37.245,16.8L 37.245,20.64L 35.3775,20.64L 37.5825,24 Z"/>
      <path databind="databind2" style="display:block" transform="scale(0.6,0.6)" fill="#C0C0C0" d="M 20.205,19.59L 20.205,17.7075L 18.765,16.8L 17.3775,17.7075L 17.3775,19.59L 18.765,20.4975L 20.205,19.59 Z M 37.5825,24L 34.275,24L 32.115,20.64L 29.1375,20.64L 31.2975,24L 27.9825,24L 25.8225,20.64L 21.885,20.64L 23.805,23.8575L 27.7425,24L 29.4225,26.88L 25.44,26.925L 26.925,29.61L 30.9075,29.76L 32.5425,32.64L 28.56,32.355L 29.52,33.9825L 26.31,35.805L 25.395,34.2225L 23.4225,37.92L 21.7575,34.9275L 23.6775,31.3275L 22.275,28.8L 20.3025,32.64L 18.63,29.58L 20.55,25.845L 18.6075,22.515L 16.755,25.7775L 18.6225,29.3325L 16.9425,32.16L 15.0675,28.6575L 13.5825,31.245L 15.4575,34.755L 13.8225,37.5825L 11.955,34.08L 11.04,35.6625L 7.8225,33.84L 8.7825,32.205L 4.6575,32.355L 6.2925,29.52L 10.4175,29.3775L 11.9025,26.835L 7.7775,26.925L 9.4575,24.09L 13.5375,23.9475L 15.5025,20.5425L 11.805,20.5425L 9.69,23.9025L 6.285,23.9025L 8.4,20.5425L 5.565,20.5425L 3.45,23.9025L 0.0449994,23.9025L 2.16,20.5425L 0.3375,20.5425L 0.3375,16.845L 2.16,16.845L 0,13.3425L 3.2625,13.3425L 5.475,16.845L 8.4,16.845L 6.24,13.3425L 9.5475,13.3425L 11.7075,16.845L 15.645,16.845L 13.7775,13.5825L 9.795,13.44L 8.16,10.56L 12.0975,10.56L 10.6125,8.085L 6.675,7.8975L 5.04,5.1825L 8.9775,5.28L 8.0625,3.675L 11.28,1.875L 12.195,3.4575L 14.115,0L 15.855,2.7825L 13.8675,6.3675L 15.315,8.88L 17.28,5.28L 18.96,8.1975L 17.01,11.7825L 18.9225,15.12L 20.835,11.8575L 18.96,8.355L 20.64,5.475L 22.4625,9.0225L 23.955,6.435L 22.125,2.925L 23.76,0.0974998L 25.5825,3.6L 26.5425,1.965L 29.715,3.7575L 28.8,5.28L 32.925,5.28L 31.29,8.1375L 27.165,8.235L 25.68,10.845L 29.805,10.56L 28.125,13.305L 24,13.44L 22.08,16.8L 25.8225,16.8L 27.9375,13.44L 31.245,13.44L 29.1375,16.8L 32.115,16.8L 34.2225,13.44L 37.485,13.44L 35.3775,16.8L 37.245,16.8L 37.245,20.64L 35.3775,20.64L 37.5825,24 Z"/>
  </svg>
</svg>
</svg>