<svg xmlns="http://www.w3.org/2000/svg" xmlns:xlink="http://www.w3.org/1999/xlink" width="40px" height="100px" version="1.1"><defs/>
    <svg width='100%' height='100%'  viewBox="0 0 40 100" databind="databindHide">
        <path id="filter_face" d="M 40,00 L10,30 L10,100 L40,70" fill="#606060" />

        <path d="M 10,38 L40,8 L40,12 L10,42  Z" fill="#808080" />
        <path d="M 10,48 L40,18 L40,22 L10,52 Z" fill="#808080" />
        <path d="M 10,58 L40,28 L40,32 L10,62 Z" fill="#808080" />
        <path d="M 10,68 L40,38 L40,42 L10,72 Z" fill="#808080" />
        <path d="M 10,78 L40,48 L40,52 L10,82 Z" fill="#808080" />
        <path d="M 10,88 L40,58 L40,62 L10,92 Z" fill="#808080" />

        <path d="M 10,76.66 L30,10" stroke="#B0B0B0" stroke-width="1" stroke-linejoin="round"/>
        <path d="M 10,53.33 L20,20" stroke="#B0B0B0" stroke-width="1" stroke-linejoin="round"/>
        <path d="M 10,100 L40,0   " stroke="#B0B0B0" stroke-width="1" stroke-linejoin="round"/>
        <path d="M 20,90 L40,23.33" stroke="#B0B0B0" stroke-width="1" stroke-linejoin="round"/>
        <path d="M 30,80 L40,46.66" stroke="#B0B0B0" stroke-width="1" stroke-linejoin="round"/>

        <path d="M 10,76.66 L20,90" stroke="#B0B0B0" stroke-width="1" stroke-linejoin="round"/>
        <path d="M 10,53.33 L30,80" stroke="#B0B0B0" stroke-width="1" stroke-linejoin="round"/>
        <path d="M 10,30 L40,70   " stroke="#B0B0B0" stroke-width="1" stroke-linejoin="round"/>
        <path d="M 20,20 L40,46.66" stroke="#B0B0B0" stroke-width="1" stroke-linejoin="round"/>
        <path d="M 30,10 L40,23.33" stroke="#B0B0B0" stroke-width="1" stroke-linejoin="round"/>

        <path id="filter_frameTop" d="M 30,0 L0,30 L10,30 L40,0" fill="#C1C1C1" />
        <path id="filter_frameFront" d="M 0,30 L0,100 L10,100 L10,30" fill="#A0A0A0" />
    </svg>
</svg>