<svg xmlns="http://www.w3.org/2000/svg" width="100px" height="100px" version="1.1"><defs/>
    <svg width='100%' height='100%' viewBox="0 0 100 100" databind="databindHide">
        <radialGradient id='autoId_leftTopElbow_pipeGrad' cx="0" cy="0" r="150%" fx="0" fy="0" >
            <stop  offset='20%' stop-color='#303030'/>
            <stop  offset='39%' stop-color='#D0D0D0'/>
            <stop  offset='65%'  stop-color='#303030'/>
        </radialGradient>
        <radialGradient id='autoId_leftTopElbow_pipeGrad2' cx="0" cy="0" r="150%" fx="0" fy="0" >
            <stop  offset='20%' stop-color='#006400'/>
            <stop  offset='39%' stop-color='#98FB98'/>
            <stop  offset='65%'  stop-color='#006400'/>
        </radialGradient>
        <radialGradient id='autoId_leftTopElbow_fillGrad' cx="0" cy="0" r="150%" fx="0" fy="0" >
            <stop  offset='30%' stop-color='#FFFFFF'/>
            <stop  offset='65%' stop-color='#0000FF'/>
            <stop  offset='100%' stop-color='#FFFFFF'/>
        </radialGradient>
        <radialGradient id='autoId_leftTopElbow_fillGrad2' cx="0" cy="0" r="150%" fx="0" fy="0" >
            <stop  offset='30%' stop-color='#EEE8AA'/>
            <stop  offset='65%' stop-color='#800000'/>
            <stop  offset='100%' stop-color='#EEE8AA'/>
        </radialGradient>
        <path d="M0,30 A30,30 0 0 0 30,0 L70,0 A70,70 0 0 1 0,70 Z" style="fill: url('#autoId_leftTopElbow_pipeGrad');"/>
        <!--<path d="M0,30 A30,30 0 0 0 30,0 L70,0 A70,70 0 0 1 0,70 Z" style="fill: url('#autoId_leftTopElbow_pipeGrad2');display:none;"/>-->
        <g style="display: none;" databind="databind1">
            <path d="M0,40 A40,40 0 0 0 40,0 L60,0 A60,60 0 0 1 0,60 Z" style="fill: url('#autoId_leftTopElbow_fillGrad');" />
            <!--<path d="M0,40 A40,40 0 0 0 40,0 L60,0 A60,60 0 0 1 0,60 Z" style="fill: url('#autoId_leftTopElbow_fillGrad2');display:block;" />-->
        </g>
    </svg>

</svg>