<svg xmlns="http://www.w3.org/2000/svg" width="100px" height="100px" version="1.1"><defs/>
    <svg width='100%' height='100%'  viewBox="0 0 100 100" databind="databindHide">
        <radialGradient id='autoId_leftBottomElbow_pipeGrad' cx="-15%" cy="90%" r="150%" fx="-15%" fy="90%" >
            <stop  offset='25%' stop-color='#303030'/>
            <stop  offset='50%' stop-color='#D0D0D0'/>
            <stop  offset='75%'  stop-color='#303030'/>
        </radialGradient>
        <radialGradient id='autoId_leftBottomElbow_pipeGrad2' cx="-15%" cy="90%" r="150%" fx="-15%" fy="90%" >
            <stop  offset='25%' stop-color='#006400'/>
            <stop  offset='50%' stop-color='#98FB98'/>
            <stop  offset='75%'  stop-color='#006400'/>
        </radialGradient>
        <radialGradient id='autoId_leftBottomElbow_fillGrad' cx="15%" cy="110%" r="150%" fx="15%" fy="110%" >
            <stop  offset='35%' stop-color='#FFFFFF'/>
            <stop  offset='55%' stop-color='#0000FF'/>
            <stop  offset='80%' stop-color='#FFFFFF'/>
        </radialGradient>
        <radialGradient id='autoId_leftBottomElbow_fillGrad2' cx="15%" cy="110%" r="150%" fx="15%" fy="110%" >
            <stop  offset='35%' stop-color='#EEE8AA'/>
            <stop  offset='55%' stop-color='#800000'/>
            <stop  offset='80%' stop-color='#EEE8AA'/>
        </radialGradient>
        <path d="M0,70 A30,30 0 0 1 30,100 L70,100 A70,70 0 0 0 0,30 Z" style="fill: url('#autoId_leftBottomElbow_pipeGrad');"/>
        <!--<path d="M0,70 A30,30 0 0 1 30,100 L70,100 A70,70 0 0 0 0,30 Z" style="fill: url('#autoId_leftBottomElbow_pipeGrad');display:none;"/>-->
        <g style="display: none;" databind="databind1">
            <path d="M0,60 A40,40 0 0 1 40,100 L60,100 A60,60 0 0 0 0,40 Z" style="fill: url('#autoId_leftBottomElbow_fillGrad');"/>
            <!--<path d="M0,60 A40,40 0 0 1 40,100 L60,100 A60,60 0 0 0 0,40 Z" style="fill: url('#autoId_leftBottomElbow_fillGrad2');display:none;"/>-->
        </g>
    </svg>

</svg>