<?xml version="1.0" standalone="no"?><!DOCTYPE svg PUBLIC "-//W3C//DTD SVG 1.1//EN" "http://www.w3.org/Graphics/SVG/1.1/DTD/svg11.dtd"><svg t="1512628884089" class="icon" style="" viewBox="0 0 1024 1024" version="1.1" xmlns="http://www.w3.org/2000/svg" p-id="920" data-spm-anchor-id="a313x.7781069.0.i4." xmlns:xlink="http://www.w3.org/1999/xlink" width="32" height="32"><defs><style type="text/css"></style></defs><path d="M964.528984 344.154476 822.055844 487.037697c-52.951641 53.096857-128.028251 70.252784-195.461596 51.910586l118.930783-118.968621c1.747704-1.486929 3.679484-2.672177 5.308561-4.382043l142.439393-142.826976c39.357594-39.434292 39.357594-103.412114 0-142.846406-39.286009-39.435315-103.077708-39.435315-142.439393 0L608.400334 272.769622c0 0 0 0 0 0.037838l-0.111469-0.112491L485.084441 395.917801c-17.710201-67.210409-0.480644-141.825804 52.096708-194.552463L679.616451 58.519954c78.683486-78.906423 206.231092-78.906423 284.913555 0C1043.211447 137.386494 1043.211447 265.305321 964.528984 344.154476zM378.701538 719.112103l-0.187144-0.149306c-9.245752 9.432896-22.166897 15.299822-36.42362 15.299822-28.295621 0-51.17019-22.874569-51.17019-51.168145 0-14.85088 6.388476-28.071661 16.414508-37.430927l338.603548-338.640363c9.321428-10.026032 22.575956-16.413485 37.392066-16.413485 28.290508 0 51.164054 22.873546 51.164054 51.168145 0 14.035831-5.645012 26.660408-14.740434 35.942975l0.186122 0.149306L378.701538 719.112103zM273.098914 607.715161 130.663612 750.600428c-39.324869 39.434292-39.324869 103.375298 0 142.808568 39.358617 39.432247 103.114523 39.432247 142.435302 0l142.437347-142.808568c1.039009-1.040032 1.709866-2.228348 2.675245-3.265312l120.528157-120.531225c17.969954 67.4313 0.817095 142.289064-51.946379 195.237637L344.318099 964.850095c-78.645648 78.865517-206.192232 78.865517-284.874695 0-78.644625-78.867562-78.644625-206.82525 0-285.692812l142.439393-142.808568c52.801312-52.948573 127.584422-70.180176 194.867438-52.056825L274.140991 606.898066C273.843401 607.270309 273.436388 607.418593 273.098914 607.715161z" p-id="921" data-spm-anchor-id="a313x.7781069.0.i5." class="" fill="#555555"></path></svg>