<?xml version="1.0" standalone="no"?><!DOCTYPE svg PUBLIC "-//W3C//DTD SVG 1.1//EN" "http://www.w3.org/Graphics/SVG/1.1/DTD/svg11.dtd"><svg t="1514004959312" class="icon" style="" viewBox="0 0 1024 1024" version="1.1" xmlns="http://www.w3.org/2000/svg" p-id="3150" data-spm-anchor-id="a313x.7781069.0.i52" xmlns:xlink="http://www.w3.org/1999/xlink" width="48" height="48"><defs><style type="text/css"></style></defs><path d="M864.512 768.832c6.144-23.808 10.176-48.448 11.456-73.92l-89.984 2.176-1.152-45.568 90.56-2.24c-6.4-82.304-40.064-156.8-92.032-214.784l-63.36 64.96-32.64-31.808 63.552-65.152c-61.44-53.44-140.864-86.528-228.032-89.088l2.944 90.048L480.256 404.928 477.312 314.624C395.648 322.368 321.92 357.184 265.024 409.856l63.68 61.184L297.152 503.936 233.536 442.816C184.128 501.568 152.704 576 148.224 657.728l86.656-0.704 0.32 45.568-86.656 0.704c1.536 22.528 5.312 44.416 10.816 65.536L65.28 768.832c-6.016-29.44-9.216-59.968-9.216-91.136 0-251.84 204.096-455.936 455.936-455.936s455.936 204.096 455.936 455.936c0 31.232-3.2 61.696-9.216 91.136L864.512 768.832 864.512 768.832zM876.672 678.4c0-0.192 0.064-0.448 0.064-0.704 0-0.768-0.128-1.536-0.128-2.304L876.672 678.4 876.672 678.4zM398.016 666.304c0-56 44.928-101.376 100.672-102.4l116.8-163.968L581.504 603.84c13.376 17.344 21.696 38.784 21.696 62.464 0 56.64-45.952 102.592-102.592 102.592C443.968 768.832 398.016 722.88 398.016 666.304L398.016 666.304zM500.608 723.264c31.424 0 56.96-25.472 56.96-56.96 0-31.488-25.472-57.024-56.96-57.024-31.488 0-57.024 25.472-57.024 57.024C443.648 697.728 469.12 723.264 500.608 723.264L500.608 723.264zM500.608 723.264" p-id="3151" data-spm-anchor-id="a313x.7781069.0.i49" class="" fill="#555555"></path></svg>