<svg xmlns="http://www.w3.org/2000/svg" xmlns:xlink="http://www.w3.org/1999/xlink" width="200px" height="200px" viewBox="0 0 272 999" version="1.1" databind="databindHide"><defs/>
  <svg width="272" heitht="999" fill="none">
  <polygon fill="#4c4c4c" points="105,999 105,957 79,957 79,749 105,749 105,582 89,582 89,546 105,546 105,530 89,530 89,406 204,406 204,530 188,530 188,546 204,546 204,582 188,582 188,749 214,749 214,957 188,957 188,999 105,999" />
  <polygon fill="#7f7f7f" points="118,999 118,957 100,957 100,749 118,749 118,582 107,582 107,546 118,546 118,530 107,530 107,406 186,406 186,530 175,530 175,546 186,546 186,582 175,582 175,749 193,749 193,957 175,957 175,999 118,999" />
  <polygon fill="#b2b2b2" points="137,999 137,957 131,957 131,749 137,749 137,582 134,582 134,546 137,546 137,530 134,530 134,406 160,406 160,530 156,530 156,546 160,546 160,582 156,582 156,749 162,749 162,957 156,957 156,999 137,999" />
  <polyline stroke="#191919" stroke-width="3" points="105,999 105,957 79,957 79,749 105,749 105,582 89,582 89,546 105,546 105,530 89,530 89,406 204,406 204,530 188,530 188,546 204,546 204,582 188,582 188,749 214,749 214,957 188,957 188,999 105,999" />
  <polyline stroke="#000000" stroke-width="3" points="105,531 187,531" />
  <polyline stroke="#000000" stroke-width="3" points="105,547 187,547" />
  <polyline stroke="#000000" stroke-width="3" points="105,583 187,583" />
  <polyline stroke="#000000" stroke-width="3" points="105,749 187,749" />
  <polyline stroke="#000000" stroke-width="3" points="105,957 187,957" />
  <polygon fill="#404040" stroke="#000000" stroke-width="3" points="271,367 271,383 271,386 269,390 266,393 261,396 256,398 249,401 242,403 234,406 224,408 215,410 204,411 193,413 181,414 169,414 156,415 143,415 130,415 118,414 106,414 94,413 83,411 72,410 62,408 53,406 45,403 37,401 31,398 25,396 21,393 18,390 16,386 15,383 15,367 16,364 18,361 21,358 25,355 31,352 37,350 45,347 53,345 62,343 72,341 83,339 94,338 106,337 118,336 130,335 143,335 156,335 169,336 181,337 193,338 204,339 215,341 224,343 234,345 242,347 249,350 256,352 261,355 266,358 269,361 271,364 271,367" />
  <ellipse fill="#7f7f7f" stroke="#000000" stroke-width="3" cx="143" cy="367" rx="128" ry="32" />
  <polygon fill="#999999" points="15,32 16,26 18,20 21,14 25,9 30,5 36,2 41,0 47,0 59,0 71,0 83,0 96,0 108,0 120,0 132,0 144,0 156,0 168,0 180,0 192,0 204,0 216,0 228,0 240,0 246,0 251,2 257,5 262,9 266,14 269,20 271,26 272,32 272,96 264,96 264,352 263,358 261,363 258,369 254,374 249,378 244,381 238,383 232,384 220,384 208,384 197,384 186,384 175,384 165,384 154,384 144,384 133,384 123,384 112,384 101,384 90,384 79,384 67,384 55,384 49,383 44,381 38,378 33,374 29,369 26,363 24,358 23,352 23,96 15,96 15,32" />
  <polygon fill="#b0b0b0" points="38,31 38,25 40,20 42,14 46,9 50,5 54,2 59,0 64,0 74,0 84,0 94,0 104,0 114,0 124,0 134,0 144,0 154,0 164,0 174,0 184,0 194,0 203,0 213,0 223,0 228,0 233,2 238,5 242,9 245,14 248,20 249,25 250,31 250,96 243,96 243,352 243,358 241,363 238,369 235,374 231,378 226,381 222,383 217,384 207,384 197,384 188,384 179,384 170,384 161,384 152,384 144,384 135,384 126,384 117,384 109,384 99,384 90,384 81,384 71,384 66,383 61,381 56,378 53,374 49,369 47,363 45,358 44,352 44,96 38,96 38,31" />
  <polygon fill="#c4c4c4" points="59,31 60,25 61,20 63,14 66,9 69,5 73,2 77,0 81,0 89,0 96,0 104,0 112,0 120,0 128,0 136,0 144,0 152,0 159,0 167,0 175,0 183,0 191,0 199,0 207,0 211,0 214,2 218,5 221,9 224,14 226,20 227,25 228,31 228,96 223,96 223,352 222,358 221,363 219,369 216,374 213,378 209,381 206,383 202,384 194,384 186,384 179,384 172,384 165,384 158,384 151,384 144,384 137,384 130,384 123,384 116,384 109,384 101,384 94,384 86,384 82,383 78,381 75,378 72,374 69,369 67,363 65,358 65,352 65,96 59,96 59,31" />
  <polygon fill="#dbdbdb" points="82,31 82,25 83,20 84,14 86,9 89,5 91,2 94,0 97,0 103,0 109,0 115,0 120,0 126,0 132,0 138,0 144,0 150,0 155,0 161,0 167,0 173,0 179,0 185,0 190,0 193,0 196,2 199,5 201,9 203,14 205,20 206,25 206,31 206,96 202,96 202,352 202,358 201,363 199,369 197,374 195,378 192,381 189,383 186,384 181,384 175,384 170,384 164,384 159,384 154,384 149,384 144,384 139,384 134,384 128,384 123,384 118,384 112,384 107,384 101,384 98,383 95,381 93,378 90,374 88,369 87,363 86,358 86,352 86,96 82,96 82,31" />
  <polygon fill="#f2f2f2" points="103,32 104,26 104,20 105,14 106,9 108,5 110,2 111,0 113,0 117,0 121,0 125,0 129,0 132,0 136,0 140,0 144,0 147,0 151,0 155,0 159,0 162,0 166,0 170,0 174,0 176,0 177,2 179,5 181,9 182,14 183,20 183,26 184,32 184,96 181,96 181,352 181,358 180,363 179,369 178,374 177,378 175,381 173,383 171,384 168,384 164,384 160,384 157,384 154,384 150,384 147,384 144,384 140,384 137,384 134,384 130,384 127,384 123,384 120,384 116,384 114,383 112,381 111,378 109,374 108,369 107,363 106,358 106,352 106,96 103,96 103,32" />
  <polyline stroke="#000000" stroke-width="3" points="23,95 263,95" />
  <polyline stroke="#000000" stroke-width="3" points="15,32 16,26 18,20 21,14 25,9 30,5 36,2 41,0 47,0 59,0 71,0 83,0 96,0 108,0 120,0 132,0 144,0 156,0 168,0 180,0 192,0 204,0 216,0 228,0 240,0 246,0 251,2 257,5 262,9 266,14 269,20 271,26 272,32 272,96 264,96 264,352 263,358 261,363 258,369 254,374 249,378 244,381 238,383 232,384 220,384 208,384 197,384 186,384 175,384 165,384 154,384 144,384 133,384 123,384 112,384 101,384 90,384 79,384 67,384 55,384 49,383 44,381 38,378 33,374 29,369 26,363 24,358 23,352 23,96 15,96 15,32" />
  <polygon fill="#7f7f7f" stroke="#000000" stroke-width="3" points="223,255 199,255 199,103 223,103 223,255" />
  <polygon fill="#7f7f7f" stroke="#000000" stroke-width="3" points="87,207 47,207 47,103 87,103 87,207" />
  <polygon fill="#999999" stroke="#000000" stroke-width="3" points="223,255 271,239 271,103 223,103 223,255" />
  <polygon fill="#999999" stroke="#000000" stroke-width="3" points="47,207 0,199 0,103 47,103 47,207" />
  <polygon fill="#4c4c4c" points="111,39 175,39 175,79 111,79 111,39" />
  <polygon fill="#e5e5e5" points="119,47 167,47 167,55 119,55 119,47" />
  <polygon fill="#d9d9d9" points="127,63 159,63 159,71 127,71 127,63" />
  <polygon fill="#000000" points="105,499 97,493 94,478 97,463 105,457 112,463 115,478 112,493 105,499" />
</svg>
  </svg>