<svg xmlns="http://www.w3.org/2000/svg" xmlns:xlink="http://www.w3.org/1999/xlink" width="200px" height="200px" viewBox="0 0 998 411" version="1.1" databind="databindHide"><defs/>
  <svg width="998" heitht="411" fill="none">
  <polygon fill="#000000" points="257,118 272,118 272,200 257,200 257,118" />
  <polygon fill="#000000" points="67,262 67,241 210,241 210,262 67,262" />
  <polygon fill="#000000" points="478,247 478,133 499,133 499,247 478,247" />
  <polygon fill="#cccccc" stroke="#000000" stroke-width="3" points="4,344 993,344 993,406 4,406 4,344" />
  <polygon fill="#7f7f7f" points="499,118 633,118 643,92 684,92 695,118 684,118 679,97 648,97 643,118 705,118 705,77 911,77 911,169 962,169 962,97 993,97 993,283 962,283 962,210 911,210 911,303 705,303 705,262 499,262 499,118" />
  <polygon fill="#999999" points="499,131 705,131 705,98 911,98 911,173 963,173 963,115 994,115 994,264 963,264 963,206 911,206 911,281 705,281 705,248 499,248 499,131" />
  <polygon fill="#b2b2b2" points="499,145 705,145 705,120 911,120 911,177 963,177 963,132 994,132 994,247 963,247 963,202 911,202 911,259 849,259 849,344 767,344 767,259 705,259 705,234 499,234 499,145" />
  <polygon fill="#cccccc" points="499,159 705,159 705,142 911,142 911,181 963,181 963,150 994,150 994,229 963,229 963,198 911,198 911,237 705,237 705,220 674,220 674,288 689,288 689,308 514,308 514,288 530,288 530,220 499,220 499,159" />
  <polygon fill="#e5e5e5" points="499,173 705,173 705,164 911,164 911,185 962,185 962,168 993,168 993,211 962,211 962,194 911,194 911,216 705,216 705,206 499,206 499,173" />
  <polyline stroke="#000000" stroke-width="3" points="499,118 633,118 643,92 684,92 695,118 705,118 705,77 911,77 911,169 962,169 962,97 993,97 993,283 962,283 962,210 911,210 911,303 849,303 849,344 767,344 767,303 705,303 705,262 674,262 674,288 689,288 689,308 514,308 514,288 530,288 530,262 499,262 499,118" />
  <polygon fill="#e5e5e5" stroke="#000000" stroke-width="3" points="561,344 561,288 581,288 581,344 561,344" />
  <polygon fill="#000000" points="530,293 540,293 540,303 530,303 530,293" />
  <polygon fill="#000000" points="664,293 674,293 674,303 664,303 664,293" />
  <polygon fill="#000000" points="597,293 607,293 607,303 597,303 597,293" />
  <polygon fill="#999999" points="566,293 576,293 576,303 566,303 566,293" />
  <polyline stroke="#000000" stroke-width="3" points="643,118 648,97 679,97 684,118 643,118" />
  <polygon fill="#7f7f7f" points="932,4 932,25 867,25 867,77 831,77 831,25 766,25 766,4 932,4" />
  <polygon fill="#999999" points="916,4 916,25 864,25 864,77 835,77 835,25 783,25 783,4 916,4" />
  <polygon fill="#b2b2b2" points="900,4 900,25 861,25 861,77 838,77 838,25 799,25 799,4 900,4" />
  <polygon fill="#cccccc" points="884,4 884,25 857,25 857,77 842,77 842,25 815,25 815,4 884,4" />
  <polygon fill="#e5e5e5" points="867,4 867,25 853,25 853,77 845,77 845,25 831,25 831,4 867,4" />
  <polyline stroke="#000000" stroke-width="3" points="932,4 932,25 867,25 867,77 831,77 831,25 766,25 766,4 932,4" />
  <polyline stroke="#000000" stroke-width="3" points="705,262 705,118" />
  <polyline stroke="#000000" stroke-width="3" points="911,210 911,169" />
  <polyline stroke="#000000" stroke-width="3" points="962,210 962,169" />
  <polyline stroke="#000000" stroke-width="3" points="831,25 867,25" />
  <polyline stroke="#000000" stroke-width="3" points="561,334 581,334" />
  <polyline stroke="#000000" stroke-width="3" points="767,334 849,334" />
  <polygon fill="#b2b2b2" stroke="#000000" stroke-width="3" points="808,138 808,97 880,97 880,138 808,138" />
  <polygon fill="#b2b2b2" stroke="#000000" stroke-width="3" points="715,175 715,133 736,133 736,175 715,175" />
  <polyline stroke="#666666" stroke-width="3" points="746,303 746,221" />
  <polyline stroke="#666666" stroke-width="3" points="746,159 746,77" />
  <polygon fill="#7f7f7f" points="798,324 818,324 818,334 798,334 798,324" />
  <polygon fill="#b2b2b2" points="272,344 272,97 478,97 478,344 272,344" />
  <polygon fill="#bfbfbf" points="272,226 272,97 478,97 478,226 272,226" />
  <polygon fill="#cccccc" points="272,164 272,97 478,97 478,164 272,164" />
  <polygon fill="#e5e5e5" points="272,133 272,113 478,113 478,133 272,133" />
  <polyline stroke="#000000" stroke-width="3" points="272,344 272,97 478,97 478,344 272,344" />
  <polygon fill="#7f7f7f" points="231,241 46,241 4,231 4,87 46,77 231,77 231,92 257,108 257,210 231,226 231,241" />
  <polygon fill="#999999" points="232,224 46,224 5,216 5,101 46,93 232,93 232,105 257,118 257,200 232,212 232,224" />
  <polygon fill="#b2b2b2" points="232,208 46,208 5,202 5,116 46,110 232,110 232,119 257,128 257,189 232,199 232,208" />
  <polygon fill="#cccccc" points="232,191 46,191 5,187 5,131 46,126 232,126 232,133 257,139 257,179 232,185 232,191" />
  <polygon fill="#e5e5e5" points="231,175 46,175 4,173 4,146 46,144 231,144 231,146 257,149 257,169 231,172 231,175" />
  <polyline stroke="#000000" stroke-width="3" points="231,241 46,241 4,231 4,87 46,77 231,77 231,92 257,108 257,210 231,226 231,241" />
  <polygon fill="#b2b2b2" stroke="#000000" stroke-width="3" points="66,344 66,262 210,262 210,344 66,344" />
  <polygon fill="#b2b2b2" stroke="#000000" stroke-width="3" points="77,262 77,179 149,179 149,262 77,262" />
  <polyline stroke="#ffffff" stroke-width="3" points="87,252 87,190 138,190" />
  <polygon fill="#000000" points="82,252 87,252 87,257 82,257 82,252" />
  <polygon fill="#000000" points="138,252 144,252 144,257 138,257 138,252" />
  <polygon fill="#000000" points="138,185 144,185 144,190 138,190 138,185" />
  <polygon fill="#000000" points="82,185 87,185 87,190 82,190 82,185" />
  <polyline stroke="#000000" stroke-width="3" points="231,226 231,92" />
  <polygon fill="#4c4c4c" points="66,77 221,77 221,164 66,164 66,77" />
  <polygon fill="#cccccc" points="66,138 226,138 226,144 66,144 66,138" />
  <polygon fill="#cccccc" points="66,154 226,154 226,159 66,159 66,154" />
  <polygon fill="#b2b2b2" points="66,108 226,108 226,113 66,113 66,108" />
  <polygon fill="#b2b2b2" points="66,123 226,123 226,128 66,128 66,123" />
  <polygon fill="#999999" points="66,97 226,97 226,102 66,102 66,97" />
  <polygon fill="#999999" points="66,87 226,87 226,92 66,92 66,87" />
  <polygon fill="#999999" points="66,77 226,77 226,82 66,82 66,77" />
</svg>
</svg>