<svg xmlns="http://www.w3.org/2000/svg" xmlns:xlink="http://www.w3.org/1999/xlink" width="200px" height="200px" viewBox="0 0 999 880" version="1.1" databind="databindHide"><defs/>
  <svg width="999" heitht="880" fill="none">
  <polygon fill="#597f7f" stroke="#000000" stroke-width="3" points="857,321 859,328 861,335 863,342 864,350 866,357 867,365 869,372 870,379 871,387 872,395 873,402 874,410 874,417 875,425 875,432 875,440 874,462 873,484 870,506 866,527 861,548 855,569 848,589 841,609 832,628 822,647 812,665 801,683 788,700 775,716 762,732 747,747 732,762 716,775 700,788 683,801 665,812 647,822 628,832 609,841 589,848 569,855 548,861 527,866 506,870 484,873 462,874 440,875 417,874 395,873 373,870 352,866 331,861 310,855 290,848 271,841 251,832 233,822 214,812 196,801 179,788 163,775 147,762 132,747 118,732 104,716 91,700 79,683 68,665 57,647 47,628 38,609 31,589 24,569 18,548 13,527 9,506 6,484 5,462 4,440 5,417 6,395 9,373 13,352 18,331 24,310 31,290 38,271 47,251 57,233 68,214 79,196 91,179 104,163 118,147 132,132 147,118 163,104 179,91 196,79 214,68 233,57 251,47 271,38 290,31 310,24 331,18 352,13 373,9 395,6 417,5 440,4 994,4 994,321 857,321" />
  <ellipse fill="#cc6600" stroke="#000000" stroke-width="3" cx="439.5" cy="400" rx="316.5" ry="317" />
  <ellipse fill="#164c4c" stroke="#000000" stroke-width="3" cx="440" cy="400" rx="53" ry="53" />
  <polyline stroke="#000000" stroke-width="3" points="440,717 400,654 387,585 400,516 440,453" />
  <polyline stroke="#000000" stroke-width="3" points="598,674 532,640 486,587 463,520 466,446" />
  <polyline stroke="#000000" stroke-width="3" points="714,558 640,561 573,538 520,492 486,427" />
  <polyline stroke="#000000" stroke-width="3" points="756,400 694,440 625,453 555,440 493,400" />
  <polyline stroke="#000000" stroke-width="3" points="714,242 679,307 626,354 560,377 486,374" />
  <polyline stroke="#000000" stroke-width="3" points="598,126 601,200 578,267 532,320 466,354" />
  <polyline stroke="#000000" stroke-width="3" points="440,84 479,146 493,215 479,285 440,347" />
  <polyline stroke="#000000" stroke-width="3" points="282,126 347,161 393,214 416,281 413,354" />
  <polyline stroke="#000000" stroke-width="3" points="166,242 240,240 306,262 360,309 394,374" />
  <polyline stroke="#000000" stroke-width="3" points="123,400 186,361 255,347 324,361 387,400" />
  <polyline stroke="#000000" stroke-width="3" points="166,558 201,493 253,447 320,424 394,427" />
  <polyline stroke="#000000" stroke-width="3" points="282,674 279,600 302,534 348,480 413,446" />
</svg>
</svg>