<svg xmlns="http://www.w3.org/2000/svg" xmlns:xlink="http://www.w3.org/1999/xlink" width="200px" height="200px" viewBox="0 0 998 538" version="1.1" databind="databindHide"><defs/>
  <svg width="998" heitht="538" fill="none">
  <polygon fill="#999999" points="694,533 694,120 717,120 717,143 901,143 924,166 924,235 947,235 947,189 993,189 993,464 947,464 947,418 924,418 924,487 901,510 717,510 717,533 694,533" />
  <polygon fill="#999999" points="763,143 763,29 740,29 740,5 878,5 878,29 854,29 854,143 763,143" />
  <polygon fill="#adadad" points="694,496 694,156 717,156 717,175 901,175 924,194 924,250 947,250 947,213 993,213 993,439 947,439 947,401 924,401 924,458 901,477 717,477 717,496 694,496" />
  <polygon fill="#adadad" points="771,143 771,28 752,28 752,5 865,5 865,28 846,28 846,143 771,143" />
  <polygon fill="#c2c2c2" points="694,459 694,193 717,193 717,207 901,207 924,222 924,267 947,267 947,237 993,237 993,415 947,415 947,385 924,385 924,429 901,444 717,444 717,459 694,459" />
  <polygon fill="#c2c2c2" points="779,143 779,28 764,28 764,5 853,5 853,28 838,28 838,143 779,143" />
  <polygon fill="#d6d6d6" points="694,422 694,229 717,229 717,240 901,240 924,251 924,283 947,283 947,261 993,261 993,390 947,390 947,369 924,369 924,401 901,412 717,412 717,422 694,422" />
  <polygon fill="#d6d6d6" points="787,143 787,28 776,28 776,5 841,5 841,28 830,28 830,143 787,143" />
  <polygon fill="#ebebeb" points="694,386 694,266 717,266 717,272 901,272 924,279 924,299 947,299 947,286 993,286 993,366 947,366 947,353 924,353 924,372 901,379 717,379 717,386 694,386" />
  <polygon fill="#ebebeb" points="795,143 795,28 788,28 788,5 829,5 829,28 822,28 822,143 795,143" />
  <polygon fill="#ffffff" points="803,143 803,29 801,29 801,5 816,5 816,29 814,29 814,143 803,143" />
  <polygon fill="#ffffff" points="694,349 694,303 717,303 717,306 901,306 924,308 924,316 947,316 947,311 993,311 993,342 947,342 947,336 924,336 924,344 901,347 717,347 717,349 694,349" />
  <polygon fill="#4c4c4c" points="51,441 510,441 510,499 51,499 51,441" />
  <polygon fill="#4c4c4c" points="189,459 476,459 476,470 189,470 189,459" />
  <polygon fill="#333333" stroke="#000000" stroke-width="3" points="212,533 183,498 177,464 155,464 149,498 120,533 212,533" />
  <polygon fill="#333333" stroke="#000000" stroke-width="3" points="482,533 453,498 447,464 424,464 418,498 390,533 482,533" />
  <polygon fill="#7f7f7f" points="189,487 5,464 5,189 189,166 189,189 464,189 556,211 556,189 579,189 579,281 694,281 694,372 579,372 579,464 556,464 556,441 464,464 189,464 189,487" />
  <polygon fill="#999999" points="189,452 5,435 5,218 189,200 189,218 465,218 557,236 557,218 580,218 580,290 694,290 694,362 580,362 580,435 557,435 557,416 465,435 189,435 189,452" />
  <polygon fill="#b2b2b2" points="189,418 5,405 5,247 189,234 189,247 465,247 557,260 557,247 580,247 580,300 694,300 694,352 580,352 580,405 557,405 557,392 465,405 189,405 189,418" />
  <polygon fill="#cccccc" points="189,383 5,375 5,277 189,268 189,277 465,277 557,285 557,277 580,277 580,310 694,310 694,342 580,342 580,375 557,375 557,367 465,375 189,375 189,383" />
  <polygon fill="#e5e5e5" points="189,349 5,346 5,306 189,303 189,306 464,306 556,310 556,306 579,306 579,320 694,320 694,333 579,333 579,346 556,346 556,343 464,346 189,346 189,349" />
  <polyline stroke="#000000" stroke-width="3" points="189,487 5,464 5,189 189,166 189,189 464,189 556,211 556,189 579,189 579,281 694,281 694,372 579,372 579,464 556,464 556,441 464,464 189,464 189,487" />
  <polygon fill="#4c4c4c" points="189,189 464,189 464,326 189,326 189,189" />
  <polygon fill="#e5e5e5" points="189,292 476,292 476,303 189,303 189,292" />
  <polygon fill="#cccccc" points="189,263 476,263 476,275 189,275 189,263" />
  <polygon fill="#b2b2b2" points="189,241 476,241 476,252 189,252 189,241" />
  <polygon fill="#b2b2b2" points="189,217 476,217 476,229 189,229 189,217" />
  <polygon fill="#999999" points="189,195 476,195 476,206 189,206 189,195" />
  <polygon fill="#999999" points="189,177 476,177 476,189 189,189 189,177" />
  <polygon fill="#4c4c4c" stroke="#000000" stroke-width="3" points="200,464 447,464 447,378 200,378 200,464" />
  <polygon fill="#666666" points="189,436 476,436 476,447 189,447 189,436" />
  <polygon fill="#666666" points="189,453 476,453 476,464 189,464 189,453" />
  <polygon fill="#b2b2b2" stroke="#000000" stroke-width="3" points="252,401 395,401 395,510 252,510 252,401" />
  <polygon fill="#cccccc" stroke="#000000" stroke-width="3" points="252,401 263,384 390,384 396,401 252,401" />
  <polyline stroke="#000000" stroke-width="3" points="189,464 189,189" />
  <polyline stroke="#000000" stroke-width="3" points="556,441 556,211" />
  <polyline stroke="#000000" stroke-width="3" points="579,372 579,281" />
  <polygon fill="#333333" points="637,321 606,315 597,304 606,292 637,286 667,292 677,304 667,315 637,321" />
  <polygon fill="#333333" points="637,367 667,361 677,350 667,339 637,333 606,339 597,350 606,361 637,367" />
  <polygon fill="#e5e5e5" stroke="#000000" stroke-width="3" points="637,332 667,338 672,344 667,350 637,356 606,350 602,344 606,338 637,332" />
  <polygon fill="#e5e5e5" stroke="#000000" stroke-width="3" points="637,298 606,304 601,309 606,315 637,321 667,315 672,309 667,304 637,298" />
  <polyline stroke="#000000" stroke-width="3" points="694,533 694,120 717,120 717,143 901,143 924,166 924,235 947,235 947,189 993,189 993,464 947,464 947,418 924,418 924,487 901,510 717,510 717,533 694,533" />
  <polyline stroke="#000000" stroke-width="3" points="717,510 717,143" />
  <polyline stroke="#000000" stroke-width="3" points="924,418 924,235" />
  <polyline stroke="#000000" stroke-width="3" points="947,235 947,418" />
  <polyline stroke="#000000" stroke-width="3" points="763,143 763,29 740,29 740,5 878,5 878,29 854,29 854,143 763,143" />
  <polyline stroke="#000000" stroke-width="3" points="763,29 854,29" />
</svg>
</svg>