<svg xmlns="http://www.w3.org/2000/svg" xmlns:xlink="http://www.w3.org/1999/xlink" width="200px" height="200px" viewBox="0 0 999 453" version="1.1" databind="databindHide"><defs/>
  <svg width="999" heitht="453" fill="none">
  <polygon fill="#336666" stroke="#000000" stroke-width="3" points="313,165 337,165 337,332 313,332 313,165" />
  <polygon fill="#4c7f7f" stroke="#000000" stroke-width="3" points="17,355 38,355 38,404 17,404 17,355" />
  <polygon fill="#4c7f7f" stroke="#000000" stroke-width="3" points="91,355 111,355 111,404 91,404 91,355" />
  <polygon fill="#4c7f7f" stroke="#000000" stroke-width="3" points="265,355 286,355 286,404 265,404 265,355" />
  <polygon fill="#4c7f7f" points="26,359 297,359 317,344 317,151 297,136 293,136 288,136 283,136 276,136 269,136 262,136 253,136 244,136 235,136 225,136 215,136 205,136 194,136 183,136 173,136 162,136 151,136 140,136 129,136 118,136 108,136 98,136 88,136 79,136 70,136 62,136 54,136 47,136 40,136 35,136 30,136 26,136 21,137 17,139 12,142 8,146 4,150 2,155 0,161 0,167 0,173 0,179 0,184 0,190 0,195 0,200 0,205 0,210 0,215 0,220 0,225 0,229 0,234 0,238 0,243 0,247 0,252 0,256 0,261 0,266 0,270 0,275 0,280 0,285 0,290 0,294 0,300 0,305 0,310 0,316 0,322 0,328 0,334 2,339 4,345 8,349 12,353 17,356 21,359 26,359" />
  <polygon fill="#669999" points="26,339 297,339 317,323 317,167 297,156 293,156 288,156 283,156 276,156 269,156 262,156 253,156 244,156 235,156 225,156 215,156 205,156 194,156 183,156 173,156 162,156 151,156 140,156 129,156 118,156 108,156 98,156 88,156 79,156 70,156 62,156 54,156 47,156 40,156 35,156 30,156 26,156 21,157 17,158 12,161 8,164 4,168 2,173 0,178 0,183 0,192 0,201 0,209 0,217 0,225 0,233 0,240 0,248 0,255 0,262 0,270 0,278 0,286 0,294 0,303 0,312 0,317 2,322 4,327 8,331 12,334 17,337 21,339 26,339" />
  <polygon fill="#7fb2b2" points="26,310 297,310 317,299 317,192 297,183 293,183 288,183 283,183 276,183 269,183 262,183 253,183 244,183 235,183 225,183 215,183 205,183 194,183 183,183 173,183 162,183 151,183 140,183 129,183 118,183 108,183 98,183 88,183 79,183 70,183 62,183 54,183 47,183 40,183 35,183 30,183 26,183 21,183 17,185 12,187 8,189 4,192 2,195 0,198 0,201 0,207 0,214 0,220 0,226 0,232 0,237 0,242 0,247 0,252 0,258 0,263 0,268 0,274 0,280 0,286 0,292 0,296 2,299 4,302 8,304 12,307 17,308 21,310 26,310" />
  <polygon fill="#99cccc" points="26,279 297,279 317,272 317,223 297,216 293,216 288,216 283,216 276,216 269,216 262,216 253,216 244,216 235,216 225,216 215,216 205,216 194,216 183,216 173,216 162,216 151,216 140,216 129,216 118,216 108,216 98,216 88,216 79,216 70,216 62,216 54,216 47,216 40,216 35,216 30,216 26,216 21,216 17,217 12,218 8,219 4,220 2,222 0,223 0,225 0,228 0,232 0,234 0,237 0,240 0,242 0,245 0,248 0,250 0,253 0,255 0,258 0,261 0,264 0,267 0,270 0,272 2,273 4,275 8,276 12,277 17,278 21,279 26,279" />
  <polyline stroke="#000000" stroke-width="3" points="26,359 297,359 317,344 317,151 297,136 293,136 288,136 283,136 276,136 269,136 262,136 253,136 244,136 235,136 225,136 215,136 205,136 194,136 183,136 173,136 162,136 151,136 140,136 129,136 118,136 108,136 98,136 88,136 79,136 70,136 62,136 54,136 47,136 40,136 35,136 30,136 26,136 21,137 17,139 12,142 8,146 4,150 2,155 0,161 0,167 0,173 0,179 0,184 0,190 0,195 0,200 0,205 0,210 0,215 0,220 0,225 0,229 0,234 0,238 0,243 0,247 0,252 0,256 0,261 0,266 0,270 0,275 0,280 0,285 0,290 0,294 0,300 0,305 0,310 0,316 0,322 0,328 0,334 2,339 4,345 8,349 12,353 17,356 21,359 26,359" />
  <polygon fill="#194c4c" stroke="#000000" stroke-width="3" points="69,138 288,138 288,337 69,337 69,138" />
  <polygon fill="#336666" stroke="#000000" stroke-width="3" points="69,332 288,332 288,362 69,362 69,332" />
  <polygon fill="#7fb2b2" stroke="#000000" stroke-width="3" points="69,308 301,308 301,314 69,314 69,308" />
  <polygon fill="#7fb2b2" stroke="#000000" stroke-width="3" points="69,288 301,288 301,294 69,294 69,288" />
  <polygon fill="#7fb2b2" stroke="#000000" stroke-width="3" points="69,270 301,270 301,277 69,277 69,270" />
  <polygon fill="#99cccc" stroke="#000000" stroke-width="3" points="69,250 301,250 301,256 69,256 69,250" />
  <polygon fill="#99cccc" stroke="#000000" stroke-width="3" points="69,232 301,232 301,239 69,239 69,232" />
  <polygon fill="#99cccc" stroke="#000000" stroke-width="3" points="69,212 301,212 301,219 69,219 69,212" />
  <polygon fill="#99cccc" stroke="#000000" stroke-width="3" points="69,192 301,192 301,198 69,198 69,192" />
  <polygon fill="#99cccc" stroke="#000000" stroke-width="3" points="69,174 301,174 301,178 69,178 69,174" />
  <polygon fill="#99cccc" stroke="#000000" stroke-width="3" points="69,154 301,154 301,160 69,160 69,154" />
  <polygon fill="#99cccc" stroke="#000000" stroke-width="3" points="69,134 301,134 301,140 69,140 69,134" />
  <polygon fill="#7fb2b2" stroke="#000000" stroke-width="3" points="69,328 301,328 301,335 69,335 69,328" />
  <polygon fill="#669999" stroke="#000000" stroke-width="3" points="100,364 216,364 216,205 100,205 100,364" />
  <polyline stroke="#ffffff" stroke-width="3" points="114,355 114,216 203,216" />
  <polygon fill="#99cccc" stroke="#000000" stroke-width="3" points="0,404 954,404 954,453 0,453 0,404" />
  <polygon fill="#99cccc" stroke="#000000" stroke-width="3" points="520,129 759,129 759,353 520,353 520,129" />
  <polygon fill="#336666" stroke="#000000" stroke-width="3" points="342,348 764,348 764,402 342,402 342,348" />
  <polygon fill="#b2e5e5" points="527,134 755,134 755,194 527,194 527,134" />
  <polygon fill="#99cccc" stroke="#000000" stroke-width="3" points="759,178 909,178 909,288 759,288 759,178" />
  <polygon fill="#669999" stroke="#000000" stroke-width="3" points="759,288 909,288 909,377 759,377 759,288" />
  <polygon fill="#b2e5e5" stroke="#000000" stroke-width="3" points="759,69 909,69 909,178 759,178 759,69" />
  <polygon fill="#4c7f7f" stroke="#000000" stroke-width="3" points="759,404 909,404 909,377 759,377 759,404" />
  <polygon fill="#99cccc" stroke="#000000" stroke-width="3" points="333,100 520,100 520,384 333,384 333,100" />
  <polygon fill="#b2e5e5" points="337,105 516,105 516,174 337,174 337,105" />
  <polygon fill="#7fb2b2" stroke="#000000" stroke-width="3" points="511,319 746,319 746,404 511,404 511,319" />
  <polygon fill="#4c7f7f" stroke="#000000" stroke-width="3" points="520,328 735,328 735,404 520,404 520,328" />
  <polygon fill="#4c7f7f" points="759,0 909,0 909,20 759,20 759,0" />
  <polygon fill="#669999" points="773,0 896,0 896,20 773,20 773,0" />
  <polygon fill="#7fb2b2" points="793,0 876,0 876,20 793,20 793,0" />
  <polygon fill="#99cccc" points="813,0 856,0 856,20 813,20 813,0" />
  <polyline stroke="#000000" stroke-width="3" points="759,0 909,0 909,20 759,20 759,0" />
  <polygon fill="#4c7f7f" points="788,20 880,20 880,69 788,69 788,20" />
  <polygon fill="#669999" points="797,20 871,20 871,69 797,69 797,20" />
  <polygon fill="#7fb2b2" points="809,20 860,20 860,69 809,69 809,20" />
  <polygon fill="#99cccc" points="822,20 847,20 847,69 822,69 822,20" />
  <polyline stroke="#000000" stroke-width="3" points="788,20 880,20 880,69 788,69 788,20" />
  <polygon fill="#4c7f7f" points="954,136 954,283 909,283 909,136 954,136" />
  <polygon fill="#669999" points="954,149 954,270 909,270 909,149 954,149" />
  <polygon fill="#7fb2b2" points="954,167 954,252 909,252 909,167 954,167" />
  <polygon fill="#99cccc" points="954,189 954,232 909,232 909,189 954,189" />
  <polyline stroke="#000000" stroke-width="3" points="954,136 954,283 909,283 909,136 954,136" />
  <polyline stroke="#000000" stroke-width="3" points="925,134 925,283" />
  <polygon fill="#4c7f7f" points="954,165 954,256 983,256 983,165 954,165" />
  <polygon fill="#669999" points="954,171 954,248 983,248 983,171 954,171" />
  <polygon fill="#7fb2b2" points="954,185 954,236 983,236 983,185 954,185" />
  <polygon fill="#99cccc" points="954,196 954,223 983,223 983,196 954,196" />
  <polyline stroke="#000000" stroke-width="3" points="954,165 954,256 983,256 983,165 954,165" />
  <polygon fill="#4c7f7f" points="999,151 999,270 983,270 983,151 999,151" />
  <polygon fill="#669999" points="999,163 999,259 983,259 983,163 999,163" />
  <polygon fill="#7fb2b2" points="999,176 999,243 983,243 983,176 999,176" />
  <polygon fill="#99cccc" points="999,194 999,227 983,227 983,194 999,194" />
  <polyline stroke="#000000" stroke-width="3" points="999,151 999,270 983,270 983,151 999,151" />
</svg>
  </svg>