<svg xmlns="http://www.w3.org/2000/svg" width="100px" height="100px" version="1.1"><defs/>
    <svg width='100%' height='100%' viewBox="0 0 100 100" databind="databindHide">
        <radialGradient id='autoId_rightBottomElbow_pipeGrad' cx="100%" cy="100%" r="150%" fx="100%" fy="100%" >
            <stop  offset='30%' stop-color='#303030'/>
            <stop  offset='56%' stop-color='#D0D0D0'/>
            <stop  offset='75%'  stop-color='#303030'/>
        </radialGradient>
        <radialGradient id='autoId_rightBottomElbow_pipeGrad2' cx="100%" cy="100%" r="150%" fx="100%" fy="100%" >
            <stop  offset='30%' stop-color='#006400'/>
            <stop  offset='56%' stop-color='#98FB98'/>
            <stop  offset='75%'  stop-color='#006400'/>
        </radialGradient>
        <radialGradient id='autoId_rightBottomElbow_fillGrad' cx="100%" cy="100%" r="150%" fx="100%" fy="100%" >
            <stop  offset='30%' stop-color='#FFFFFF'/>
            <stop  offset='42%' stop-color='#0000FF'/>
            <stop  offset='75%' stop-color='#FFFFFF'/>
        </radialGradient>
        <radialGradient id='autoId_rightBottomElbow_fillGrad2' cx="100%" cy="100%" r="150%" fx="100%" fy="100%" >
            <stop  offset='30%' stop-color='#EEE8AA'/>
            <stop  offset='42%' stop-color='#800000'/>
            <stop  offset='75%' stop-color='#EEE8AA'/>
        </radialGradient>
        <path d="M100,70 A30,30 0 0 0 70,100 L30,100 A70,70 0 0 1 100,30 Z" style="fill: url('#autoId_rightBottomElbow_pipeGrad');" />
        <!--<path d="M100,70 A30,30 0 0 0 70,100 L30,100 A70,70 0 0 1 100,30 Z" style="fill: url('#autoId_rightBottomElbow_pipeGrad2');;display:none;" />-->
        <g style="display: none;" databind="databind1">
            <path d="M100,60 A40,40 0 0 0 60,100 L40,100 A60,60 0 0 1 100,40 Z" style="fill: url('#autoId_rightBottomElbow_fillGrad');"/>
            <!--<path d="M100,60 A40,40 0 0 0 60,100 L40,100 A60,60 0 0 1 100,40 Z" style="fill: url('#autoId_rightBottomElbow_fillGrad2');display:block;"/>-->
        </g>
    </svg>

</svg>