<?xml version="1.0" standalone="no"?><!DOCTYPE svg PUBLIC "-//W3C//DTD SVG 1.1//EN" "http://www.w3.org/Graphics/SVG/1.1/DTD/svg11.dtd"><svg t="1514004381895" class="icon" style="" viewBox="0 0 1024 1024" version="1.1" xmlns="http://www.w3.org/2000/svg" p-id="1885" xmlns:xlink="http://www.w3.org/1999/xlink" width="48" height="48"><defs><style type="text/css"></style></defs><path d="M882.339 160.571h-740.682c-68.141 0-123.444 55.303-123.444 123.444v451.34c0 68.141 55.303 123.444 123.444 123.444h740.682c68.141 0 123.444-55.303 123.444-123.444v-451.34c0-68.141-55.303-123.444-123.444-123.444v0zM944.062 735.355c0 34.132-27.591 61.721-61.721 61.721h-740.682c-34.068 0-61.721-27.591-61.721-61.721v-451.34c0-34.068 27.653-61.721 61.721-61.721h740.682c34.132 0 61.721 27.652 61.721 61.721v451.34zM944.062 735.355z" p-id="1886" data-spm-anchor-id="a313x.7781069.0.i28" class="" fill="#555555"></path></svg>