<?xml version="1.0" standalone="no"?><!DOCTYPE svg PUBLIC "-//W3C//DTD SVG 1.1//EN" "http://www.w3.org/Graphics/SVG/1.1/DTD/svg11.dtd"><svg t="1514005072328" class="icon" style="" viewBox="0 0 1024 1024" version="1.1" xmlns="http://www.w3.org/2000/svg" p-id="3494" xmlns:xlink="http://www.w3.org/1999/xlink" width="48" height="48"><defs><style type="text/css"></style></defs><path d="M633.472 656.8 633.472 118.416C633.472 53.104 578.976 0 512 0c-66.976 0-121.44 53.104-121.44 118.416L390.56 656.8C336.16 694.96 304 755.552 304 821.2 304 933.008 397.344 1024 512 1024c114.656 0 208-91.008 208-202.8C720 755.552 687.872 694.96 633.472 656.8zM512 979.472c-89.504 0-162.336-70.976-162.336-158.272 0-54.512 28.384-104.496 75.936-133.776l10.64-6.56L436.24 118.416c0-40.736 34-73.904 75.776-73.904 41.808 0 75.808 33.168 75.808 73.904l0 562.432 10.624 6.56c47.504 29.28 75.872 79.328 75.872 133.776C674.32 908.496 601.536 979.472 512 979.472z" p-id="3495" data-spm-anchor-id="a313x.7781069.0.i59" class="" fill="#555555"></path><path d="M534.848 746.448 534.848 301.12l-45.68 0 0 445.328c-33.2 9.664-57.536 39.296-57.536 74.752 0 43.28 35.968 78.384 80.384 78.384 44.4 0 80.336-35.104 80.336-78.384C592.336 785.744 568.032 756.128 534.848 746.448z" p-id="3496" data-spm-anchor-id="a313x.7781069.0.i60" class="" fill="#555555"></path></svg>