<?xml version="1.0" standalone="no"?><!DOCTYPE svg PUBLIC "-//W3C//DTD SVG 1.1//EN" "http://www.w3.org/Graphics/SVG/1.1/DTD/svg11.dtd"><svg t="1523496380301" class="icon" style="" viewBox="0 0 1024 1024" version="1.1" xmlns="http://www.w3.org/2000/svg" p-id="6786" data-spm-anchor-id="a313x.7781069.0.i2" xmlns:xlink="http://www.w3.org/1999/xlink" width="48" height="48"><defs><style type="text/css"></style></defs><path d="M734.074755 170.598441c-59.356386-59.458725-138.361783-92.104737-222.381771-92.104737-173.361583 0-314.077154 141.124925-314.077153 314.588846 0 113.08415 58.333 215.013392 155.042974 270.992605v189.940436c0 50.35059 39.502698 91.18369 89.034579 91.183689h140.408555c49.224865 0 89.955627-40.935439 89.955626-91.183689V663.870478C768.358185 607.891265 826.281831 505.962023 826.281831 392.980212c0.204677-84.019988-32.748351-162.923046-92.207076-222.381771zM582.204277 877.144114H441.898061c-12.075954 0-21.491105-10.336198-21.491105-23.128523v-54.648811h184.311813v54.648811c-0.102339 12.792325-10.745553 23.128523-22.514492 23.128523z m40.833101-263.726565c-11.461923 5.730961-18.420947 17.4999-18.420948 30.292225v88.011193h-57.309614V515.172497h81.973216c18.727963 0 33.874076-15.146112 33.874076-33.771737s-15.146112-33.771737-33.874076-33.771737h-233.332001c-18.727963 0-33.874076 15.146112-33.874075 33.771737s15.146112 33.771737 33.874075 33.771737h83.303618V731.720967h-58.844693v-87.908854c0-12.894663-7.675395-24.561263-19.137318-30.292225-83.815311-41.651809-136.110334-126.18349-136.110334-220.539676 0-136.110334 110.628023-246.943034 246.738357-246.943034S758.840696 256.767539 758.840696 392.980212c-0.102339 94.356186-51.988007 178.785529-135.803318 220.437337z" fill="#5a5a5a" p-id="6787" data-spm-anchor-id="a313x.7781069.0.i0" class=""></path></svg>