<?xml version="1.0" standalone="no"?><!DOCTYPE svg PUBLIC "-//W3C//DTD SVG 1.1//EN" "http://www.w3.org/Graphics/SVG/1.1/DTD/svg11.dtd"><svg t="1512464394734" class="icon" style="" viewBox="0 0 2265 1024" version="1.1" xmlns="http://www.w3.org/2000/svg" p-id="12308" xmlns:xlink="http://www.w3.org/1999/xlink" width="70.78125" height="32"><defs><style type="text/css"></style></defs><path d="M1675.636 93.09h-992.97a434.424 434.424 0 1 0 0 868.85h992.97a434.424 434.424 0 0 0 0-868.85z m0 822.304h-992.97A372.364 372.364 0 0 1 310.304 543.03V512a372.364 372.364 0 0 1 372.364-372.364h992.97A372.364 372.364 0 0 1 2048 512v31.03a372.364 372.364 0 0 1-372.364 372.364z m0-698.182a310.303 310.303 0 1 0 0 620.735 310.303 310.303 0 0 0 0-620.735z" fill="#555555" p-id="12309" data-spm-anchor-id="a313x.7781069.0.i25." class=""></path><path d="M628.558 490.473h142.351V331.7H652.541v-43.055h489.245v43.055h-111.257v158.772h134.724v43.054h-134.724v248.76h-44.67v-248.76H815.386c-1.293 66.521-10.796 116.04-28.639 148.364-17.842 35.685-58.763 71.434-122.699 107.442a446.707 446.707 0 0 0-31.094-38.206c55.595-28.315 92.703-57.923 111.256-88.889 16.55-24.889 25.342-67.814 26.44-128.71H628.559v-43.055z m187.086 0h170.15V331.7h-170.15v158.772z" fill="#555555" p-id="12310" data-spm-anchor-id="a313x.7781069.0.i26." class=""></path></svg>